%TF.GenerationSoftware,KiCad,Pcbnew,10.0.0*%
%TF.CreationDate,2026-04-06T17:18:04-07:00*%
%TF.ProjectId,First_Crack_Controller,46697273-745f-4437-9261-636b5f436f6e,rev?*%
%TF.SameCoordinates,Original*%
%TF.FileFunction,Paste,Top*%
%TF.FilePolarity,Positive*%
%FSLAX46Y46*%
G04 Gerber Fmt 4.6, Leading zero omitted, Abs format (unit mm)*
G04 Created by KiCad (PCBNEW 10.0.0) date 2026-04-06 17:18:04*
%MOMM*%
%LPD*%
G01*
G04 APERTURE LIST*
G04 Aperture macros list*
%AMRoundRect*
0 Rectangle with rounded corners*
0 $1 Rounding radius*
0 $2 $3 $4 $5 $6 $7 $8 $9 X,Y pos of 4 corners*
0 Add a 4 corners polygon primitive as box body*
4,1,4,$2,$3,$4,$5,$6,$7,$8,$9,$2,$3,0*
0 Add four circle primitives for the rounded corners*
1,1,$1+$1,$2,$3*
1,1,$1+$1,$4,$5*
1,1,$1+$1,$6,$7*
1,1,$1+$1,$8,$9*
0 Add four rect primitives between the rounded corners*
20,1,$1+$1,$2,$3,$4,$5,0*
20,1,$1+$1,$4,$5,$6,$7,0*
20,1,$1+$1,$6,$7,$8,$9,0*
20,1,$1+$1,$8,$9,$2,$3,0*%
G04 Aperture macros list end*
%ADD10C,0.010000*%
%ADD11R,1.550000X0.600000*%
%ADD12R,1.800000X1.200000*%
%ADD13RoundRect,0.150000X0.512500X0.150000X-0.512500X0.150000X-0.512500X-0.150000X0.512500X-0.150000X0*%
%ADD14RoundRect,0.040000X-0.365000X-0.120000X0.365000X-0.120000X0.365000X0.120000X-0.365000X0.120000X0*%
%ADD15RoundRect,0.040000X-0.120000X-0.365000X0.120000X-0.365000X0.120000X0.365000X-0.120000X0.365000X0*%
%ADD16RoundRect,0.250000X-0.450000X0.262500X-0.450000X-0.262500X0.450000X-0.262500X0.450000X0.262500X0*%
%ADD17RoundRect,0.250000X0.475000X-0.250000X0.475000X0.250000X-0.475000X0.250000X-0.475000X-0.250000X0*%
%ADD18RoundRect,0.250000X-0.475000X0.250000X-0.475000X-0.250000X0.475000X-0.250000X0.475000X0.250000X0*%
%ADD19RoundRect,0.250000X0.262500X0.450000X-0.262500X0.450000X-0.262500X-0.450000X0.262500X-0.450000X0*%
%ADD20RoundRect,0.243750X-0.456250X0.243750X-0.456250X-0.243750X0.456250X-0.243750X0.456250X0.243750X0*%
%ADD21RoundRect,0.015000X-0.760000X-0.285000X0.760000X-0.285000X0.760000X0.285000X-0.760000X0.285000X0*%
%ADD22RoundRect,0.250000X-0.250000X-0.475000X0.250000X-0.475000X0.250000X0.475000X-0.250000X0.475000X0*%
%ADD23RoundRect,0.250000X-0.262500X-0.450000X0.262500X-0.450000X0.262500X0.450000X-0.262500X0.450000X0*%
%ADD24RoundRect,0.250000X0.250000X0.475000X-0.250000X0.475000X-0.250000X-0.475000X0.250000X-0.475000X0*%
%ADD25RoundRect,0.218750X-0.218750X-0.381250X0.218750X-0.381250X0.218750X0.381250X-0.218750X0.381250X0*%
%ADD26RoundRect,0.500000X-0.875000X-0.500000X0.875000X-0.500000X0.875000X0.500000X-0.875000X0.500000X0*%
%ADD27RoundRect,0.275000X0.975000X0.275000X-0.975000X0.275000X-0.975000X-0.275000X0.975000X-0.275000X0*%
%ADD28C,1.700000*%
G04 APERTURE END LIST*
D10*
%TO.C,U4*%
X67655000Y-57200000D02*
X64945000Y-57200000D01*
X64945000Y-53800000D01*
X67655000Y-53800000D01*
X67655000Y-57200000D01*
G36*
X67655000Y-57200000D02*
G01*
X64945000Y-57200000D01*
X64945000Y-53800000D01*
X67655000Y-53800000D01*
X67655000Y-57200000D01*
G37*
%TD*%
D11*
%TO.C,J4*%
X19000000Y-27000000D03*
X19000000Y-28000000D03*
X19000000Y-29000000D03*
X19000000Y-30000000D03*
D12*
X15125000Y-25700000D03*
X15125000Y-31300000D03*
%TD*%
D13*
%TO.C,Q1*%
X53500000Y-32950000D03*
X53500000Y-31050000D03*
X51225000Y-32000000D03*
%TD*%
D14*
%TO.C,U1*%
X39092500Y-39740000D03*
X39092500Y-40390000D03*
X39092500Y-41040000D03*
X39092500Y-41690000D03*
X39092500Y-42340000D03*
D15*
X40242500Y-43490000D03*
X40892500Y-43490000D03*
X41542500Y-43490000D03*
X42192500Y-43490000D03*
X42842500Y-43490000D03*
D14*
X43992500Y-42340000D03*
X43992500Y-41690000D03*
X43992500Y-41040000D03*
X43992500Y-40390000D03*
X43992500Y-39740000D03*
D15*
X42842500Y-38590000D03*
X42192500Y-38590000D03*
X41542500Y-38590000D03*
X40892500Y-38590000D03*
X40242500Y-38590000D03*
%TD*%
D16*
%TO.C,R6*%
X31042500Y-37715000D03*
X31042500Y-39540000D03*
%TD*%
%TO.C,R9*%
X31042500Y-55627500D03*
X31042500Y-57452500D03*
%TD*%
D17*
%TO.C,FB2*%
X26042500Y-44540000D03*
X26042500Y-42640000D03*
%TD*%
%TO.C,FB4*%
X26042500Y-57540000D03*
X26042500Y-55640000D03*
%TD*%
D18*
%TO.C,C4*%
X68800000Y-61000000D03*
X68800000Y-62900000D03*
%TD*%
D19*
%TO.C,R4*%
X53500000Y-37000000D03*
X51675000Y-37000000D03*
%TD*%
D20*
%TO.C,D1*%
X81500000Y-18125000D03*
X81500000Y-20000000D03*
%TD*%
D13*
%TO.C,Q2*%
X48137500Y-27950000D03*
X48137500Y-26050000D03*
X45862500Y-27000000D03*
%TD*%
D21*
%TO.C,U4*%
X63600000Y-53595000D03*
X63600000Y-54865000D03*
X63600000Y-56135000D03*
X63600000Y-57405000D03*
X69000000Y-57405000D03*
X69000000Y-56135000D03*
X69000000Y-54865000D03*
X69000000Y-53595000D03*
%TD*%
D16*
%TO.C,R7*%
X31042500Y-42715000D03*
X31042500Y-44540000D03*
%TD*%
D22*
%TO.C,C6*%
X55550000Y-41050000D03*
X57450000Y-41050000D03*
%TD*%
D18*
%TO.C,C2*%
X35000000Y-53550000D03*
X35000000Y-55450000D03*
%TD*%
D23*
%TO.C,R1*%
X51675000Y-27000000D03*
X53500000Y-27000000D03*
%TD*%
D19*
%TO.C,R5*%
X48000000Y-32000000D03*
X46175000Y-32000000D03*
%TD*%
D17*
%TO.C,FB3*%
X26042500Y-52540000D03*
X26042500Y-50640000D03*
%TD*%
%TO.C,FB1*%
X26042500Y-39540000D03*
X26042500Y-37640000D03*
%TD*%
D24*
%TO.C,C5*%
X57500000Y-49000000D03*
X55600000Y-49000000D03*
%TD*%
D16*
%TO.C,R3*%
X59800000Y-61075000D03*
X59800000Y-62900000D03*
%TD*%
%TO.C,R8*%
X31042500Y-50715000D03*
X31042500Y-52540000D03*
%TD*%
D23*
%TO.C,R2*%
X46175000Y-22000000D03*
X48000000Y-22000000D03*
%TD*%
D11*
%TO.C,J3*%
X19000000Y-17000000D03*
X19000000Y-18000000D03*
X19000000Y-19000000D03*
X19000000Y-20000000D03*
D12*
X15125000Y-15700000D03*
X15125000Y-21300000D03*
%TD*%
D18*
%TO.C,C1*%
X35542500Y-40140000D03*
X35542500Y-42040000D03*
%TD*%
D25*
%TO.C,L1*%
X55375000Y-45000000D03*
X57500000Y-45000000D03*
%TD*%
D18*
%TO.C,C3*%
X64300000Y-61000000D03*
X64300000Y-62900000D03*
%TD*%
D26*
%TO.C,U3*%
X61335000Y-17932000D03*
X61335000Y-20472000D03*
X61335000Y-23012000D03*
X61335000Y-25552000D03*
X61335000Y-28092000D03*
X61335000Y-30632000D03*
X61335000Y-33172000D03*
X77500000Y-33172000D03*
X77500000Y-30632000D03*
X77500000Y-28092000D03*
X77500000Y-25552000D03*
X77500000Y-23012000D03*
X77500000Y-20472000D03*
X77500000Y-17932000D03*
D27*
X64945000Y-25170000D03*
X64945000Y-23265000D03*
D28*
X68120000Y-16920000D03*
X70660000Y-16920000D03*
X68120000Y-19460000D03*
X70660000Y-19460000D03*
X68120000Y-22000000D03*
X70660000Y-22000000D03*
%TD*%
D14*
%TO.C,U2*%
X39092500Y-52740000D03*
X39092500Y-53390000D03*
X39092500Y-54040000D03*
X39092500Y-54690000D03*
X39092500Y-55340000D03*
D15*
X40242500Y-56490000D03*
X40892500Y-56490000D03*
X41542500Y-56490000D03*
X42192500Y-56490000D03*
X42842500Y-56490000D03*
D14*
X43992500Y-55340000D03*
X43992500Y-54690000D03*
X43992500Y-54040000D03*
X43992500Y-53390000D03*
X43992500Y-52740000D03*
D15*
X42842500Y-51590000D03*
X42192500Y-51590000D03*
X41542500Y-51590000D03*
X40892500Y-51590000D03*
X40242500Y-51590000D03*
%TD*%
M02*
