%TF.GenerationSoftware,KiCad,Pcbnew,10.0.0*%
%TF.CreationDate,2026-04-06T17:18:04-07:00*%
%TF.ProjectId,First_Crack_Controller,46697273-745f-4437-9261-636b5f436f6e,rev?*%
%TF.SameCoordinates,Original*%
%TF.FileFunction,Soldermask,Top*%
%TF.FilePolarity,Negative*%
%FSLAX46Y46*%
G04 Gerber Fmt 4.6, Leading zero omitted, Abs format (unit mm)*
G04 Created by KiCad (PCBNEW 10.0.0) date 2026-04-06 17:18:04*
%MOMM*%
%LPD*%
G01*
G04 APERTURE LIST*
G04 Aperture macros list*
%AMRoundRect*
0 Rectangle with rounded corners*
0 $1 Rounding radius*
0 $2 $3 $4 $5 $6 $7 $8 $9 X,Y pos of 4 corners*
0 Add a 4 corners polygon primitive as box body*
4,1,4,$2,$3,$4,$5,$6,$7,$8,$9,$2,$3,0*
0 Add four circle primitives for the rounded corners*
1,1,$1+$1,$2,$3*
1,1,$1+$1,$4,$5*
1,1,$1+$1,$6,$7*
1,1,$1+$1,$8,$9*
0 Add four rect primitives between the rounded corners*
20,1,$1+$1,$2,$3,$4,$5,0*
20,1,$1+$1,$4,$5,$6,$7,0*
20,1,$1+$1,$6,$7,$8,$9,0*
20,1,$1+$1,$8,$9,$2,$3,0*%
G04 Aperture macros list end*
%ADD10C,0.010000*%
%ADD11R,1.700000X1.700000*%
%ADD12C,1.700000*%
%ADD13RoundRect,0.102000X-0.775000X0.300000X-0.775000X-0.300000X0.775000X-0.300000X0.775000X0.300000X0*%
%ADD14RoundRect,0.102000X-0.900000X0.600000X-0.900000X-0.600000X0.900000X-0.600000X0.900000X0.600000X0*%
%ADD15RoundRect,0.150000X0.512500X0.150000X-0.512500X0.150000X-0.512500X-0.150000X0.512500X-0.150000X0*%
%ADD16RoundRect,0.065500X-0.441500X-0.196500X0.441500X-0.196500X0.441500X0.196500X-0.441500X0.196500X0*%
%ADD17RoundRect,0.065500X-0.196500X-0.441500X0.196500X-0.441500X0.196500X0.441500X-0.196500X0.441500X0*%
%ADD18RoundRect,0.102000X-1.625000X-1.625000X1.625000X-1.625000X1.625000X1.625000X-1.625000X1.625000X0*%
%ADD19RoundRect,0.250000X-0.450000X0.262500X-0.450000X-0.262500X0.450000X-0.262500X0.450000X0.262500X0*%
%ADD20RoundRect,0.102000X0.975000X-0.975000X0.975000X0.975000X-0.975000X0.975000X-0.975000X-0.975000X0*%
%ADD21C,2.154000*%
%ADD22RoundRect,0.250000X0.475000X-0.250000X0.475000X0.250000X-0.475000X0.250000X-0.475000X-0.250000X0*%
%ADD23R,1.500000X2.300000*%
%ADD24O,1.500000X2.300000*%
%ADD25RoundRect,0.250000X-0.475000X0.250000X-0.475000X-0.250000X0.475000X-0.250000X0.475000X0.250000X0*%
%ADD26RoundRect,0.250000X0.262500X0.450000X-0.262500X0.450000X-0.262500X-0.450000X0.262500X-0.450000X0*%
%ADD27RoundRect,0.243750X-0.456250X0.243750X-0.456250X-0.243750X0.456250X-0.243750X0.456250X0.243750X0*%
%ADD28C,1.440000*%
%ADD29RoundRect,0.250000X-0.250000X-0.475000X0.250000X-0.475000X0.250000X0.475000X-0.250000X0.475000X0*%
%ADD30RoundRect,0.250000X-0.262500X-0.450000X0.262500X-0.450000X0.262500X0.450000X-0.262500X0.450000X0*%
%ADD31RoundRect,0.250000X0.250000X0.475000X-0.250000X0.475000X-0.250000X-0.475000X0.250000X-0.475000X0*%
%ADD32RoundRect,0.218750X-0.218750X-0.381250X0.218750X-0.381250X0.218750X0.381250X-0.218750X0.381250X0*%
%ADD33RoundRect,0.525400X-0.900400X-0.525400X0.900400X-0.525400X0.900400X0.525400X-0.900400X0.525400X0*%
%ADD34RoundRect,0.300400X1.000400X0.300400X-1.000400X0.300400X-1.000400X-0.300400X1.000400X-0.300400X0*%
G04 APERTURE END LIST*
D10*
%TO.C,U4*%
X67655000Y-57200000D02*
X64945000Y-57200000D01*
X64945000Y-53800000D01*
X67655000Y-53800000D01*
X67655000Y-57200000D01*
G36*
X67655000Y-57200000D02*
G01*
X64945000Y-57200000D01*
X64945000Y-53800000D01*
X67655000Y-53800000D01*
X67655000Y-57200000D01*
G37*
X64403000Y-53226000D02*
X64405000Y-53226000D01*
X64408000Y-53227000D01*
X64410000Y-53227000D01*
X64413000Y-53228000D01*
X64415000Y-53229000D01*
X64418000Y-53230000D01*
X64420000Y-53232000D01*
X64422000Y-53233000D01*
X64424000Y-53235000D01*
X64426000Y-53236000D01*
X64428000Y-53238000D01*
X64430000Y-53240000D01*
X64432000Y-53242000D01*
X64434000Y-53244000D01*
X64435000Y-53246000D01*
X64437000Y-53248000D01*
X64438000Y-53250000D01*
X64440000Y-53252000D01*
X64441000Y-53255000D01*
X64442000Y-53257000D01*
X64443000Y-53260000D01*
X64443000Y-53262000D01*
X64444000Y-53265000D01*
X64444000Y-53267000D01*
X64445000Y-53270000D01*
X64445000Y-53272000D01*
X64445000Y-53275000D01*
X64445000Y-53915000D01*
X64445000Y-53918000D01*
X64445000Y-53920000D01*
X64444000Y-53923000D01*
X64444000Y-53925000D01*
X64443000Y-53928000D01*
X64443000Y-53930000D01*
X64442000Y-53933000D01*
X64441000Y-53935000D01*
X64440000Y-53938000D01*
X64438000Y-53940000D01*
X64437000Y-53942000D01*
X64435000Y-53944000D01*
X64434000Y-53946000D01*
X64432000Y-53948000D01*
X64430000Y-53950000D01*
X64428000Y-53952000D01*
X64426000Y-53954000D01*
X64424000Y-53955000D01*
X64422000Y-53957000D01*
X64420000Y-53958000D01*
X64418000Y-53960000D01*
X64415000Y-53961000D01*
X64413000Y-53962000D01*
X64410000Y-53963000D01*
X64408000Y-53963000D01*
X64405000Y-53964000D01*
X64403000Y-53964000D01*
X64400000Y-53965000D01*
X64398000Y-53965000D01*
X64395000Y-53965000D01*
X62805000Y-53965000D01*
X62802000Y-53965000D01*
X62800000Y-53965000D01*
X62797000Y-53964000D01*
X62795000Y-53964000D01*
X62792000Y-53963000D01*
X62790000Y-53963000D01*
X62787000Y-53962000D01*
X62785000Y-53961000D01*
X62782000Y-53960000D01*
X62780000Y-53958000D01*
X62778000Y-53957000D01*
X62776000Y-53955000D01*
X62774000Y-53954000D01*
X62772000Y-53952000D01*
X62770000Y-53950000D01*
X62768000Y-53948000D01*
X62766000Y-53946000D01*
X62765000Y-53944000D01*
X62763000Y-53942000D01*
X62762000Y-53940000D01*
X62760000Y-53938000D01*
X62759000Y-53935000D01*
X62758000Y-53933000D01*
X62757000Y-53930000D01*
X62757000Y-53928000D01*
X62756000Y-53925000D01*
X62756000Y-53923000D01*
X62755000Y-53920000D01*
X62755000Y-53918000D01*
X62755000Y-53915000D01*
X62755000Y-53275000D01*
X62755000Y-53272000D01*
X62755000Y-53270000D01*
X62756000Y-53267000D01*
X62756000Y-53265000D01*
X62757000Y-53262000D01*
X62757000Y-53260000D01*
X62758000Y-53257000D01*
X62759000Y-53255000D01*
X62760000Y-53252000D01*
X62762000Y-53250000D01*
X62763000Y-53248000D01*
X62765000Y-53246000D01*
X62766000Y-53244000D01*
X62768000Y-53242000D01*
X62770000Y-53240000D01*
X62772000Y-53238000D01*
X62774000Y-53236000D01*
X62776000Y-53235000D01*
X62778000Y-53233000D01*
X62780000Y-53232000D01*
X62782000Y-53230000D01*
X62785000Y-53229000D01*
X62787000Y-53228000D01*
X62790000Y-53227000D01*
X62792000Y-53227000D01*
X62795000Y-53226000D01*
X62797000Y-53226000D01*
X62800000Y-53225000D01*
X62802000Y-53225000D01*
X62805000Y-53225000D01*
X64395000Y-53225000D01*
X64398000Y-53225000D01*
X64400000Y-53225000D01*
X64403000Y-53226000D01*
G36*
X64403000Y-53226000D02*
G01*
X64405000Y-53226000D01*
X64408000Y-53227000D01*
X64410000Y-53227000D01*
X64413000Y-53228000D01*
X64415000Y-53229000D01*
X64418000Y-53230000D01*
X64420000Y-53232000D01*
X64422000Y-53233000D01*
X64424000Y-53235000D01*
X64426000Y-53236000D01*
X64428000Y-53238000D01*
X64430000Y-53240000D01*
X64432000Y-53242000D01*
X64434000Y-53244000D01*
X64435000Y-53246000D01*
X64437000Y-53248000D01*
X64438000Y-53250000D01*
X64440000Y-53252000D01*
X64441000Y-53255000D01*
X64442000Y-53257000D01*
X64443000Y-53260000D01*
X64443000Y-53262000D01*
X64444000Y-53265000D01*
X64444000Y-53267000D01*
X64445000Y-53270000D01*
X64445000Y-53272000D01*
X64445000Y-53275000D01*
X64445000Y-53915000D01*
X64445000Y-53918000D01*
X64445000Y-53920000D01*
X64444000Y-53923000D01*
X64444000Y-53925000D01*
X64443000Y-53928000D01*
X64443000Y-53930000D01*
X64442000Y-53933000D01*
X64441000Y-53935000D01*
X64440000Y-53938000D01*
X64438000Y-53940000D01*
X64437000Y-53942000D01*
X64435000Y-53944000D01*
X64434000Y-53946000D01*
X64432000Y-53948000D01*
X64430000Y-53950000D01*
X64428000Y-53952000D01*
X64426000Y-53954000D01*
X64424000Y-53955000D01*
X64422000Y-53957000D01*
X64420000Y-53958000D01*
X64418000Y-53960000D01*
X64415000Y-53961000D01*
X64413000Y-53962000D01*
X64410000Y-53963000D01*
X64408000Y-53963000D01*
X64405000Y-53964000D01*
X64403000Y-53964000D01*
X64400000Y-53965000D01*
X64398000Y-53965000D01*
X64395000Y-53965000D01*
X62805000Y-53965000D01*
X62802000Y-53965000D01*
X62800000Y-53965000D01*
X62797000Y-53964000D01*
X62795000Y-53964000D01*
X62792000Y-53963000D01*
X62790000Y-53963000D01*
X62787000Y-53962000D01*
X62785000Y-53961000D01*
X62782000Y-53960000D01*
X62780000Y-53958000D01*
X62778000Y-53957000D01*
X62776000Y-53955000D01*
X62774000Y-53954000D01*
X62772000Y-53952000D01*
X62770000Y-53950000D01*
X62768000Y-53948000D01*
X62766000Y-53946000D01*
X62765000Y-53944000D01*
X62763000Y-53942000D01*
X62762000Y-53940000D01*
X62760000Y-53938000D01*
X62759000Y-53935000D01*
X62758000Y-53933000D01*
X62757000Y-53930000D01*
X62757000Y-53928000D01*
X62756000Y-53925000D01*
X62756000Y-53923000D01*
X62755000Y-53920000D01*
X62755000Y-53918000D01*
X62755000Y-53915000D01*
X62755000Y-53275000D01*
X62755000Y-53272000D01*
X62755000Y-53270000D01*
X62756000Y-53267000D01*
X62756000Y-53265000D01*
X62757000Y-53262000D01*
X62757000Y-53260000D01*
X62758000Y-53257000D01*
X62759000Y-53255000D01*
X62760000Y-53252000D01*
X62762000Y-53250000D01*
X62763000Y-53248000D01*
X62765000Y-53246000D01*
X62766000Y-53244000D01*
X62768000Y-53242000D01*
X62770000Y-53240000D01*
X62772000Y-53238000D01*
X62774000Y-53236000D01*
X62776000Y-53235000D01*
X62778000Y-53233000D01*
X62780000Y-53232000D01*
X62782000Y-53230000D01*
X62785000Y-53229000D01*
X62787000Y-53228000D01*
X62790000Y-53227000D01*
X62792000Y-53227000D01*
X62795000Y-53226000D01*
X62797000Y-53226000D01*
X62800000Y-53225000D01*
X62802000Y-53225000D01*
X62805000Y-53225000D01*
X64395000Y-53225000D01*
X64398000Y-53225000D01*
X64400000Y-53225000D01*
X64403000Y-53226000D01*
G37*
X64403000Y-54496000D02*
X64405000Y-54496000D01*
X64408000Y-54497000D01*
X64410000Y-54497000D01*
X64413000Y-54498000D01*
X64415000Y-54499000D01*
X64418000Y-54500000D01*
X64420000Y-54502000D01*
X64422000Y-54503000D01*
X64424000Y-54505000D01*
X64426000Y-54506000D01*
X64428000Y-54508000D01*
X64430000Y-54510000D01*
X64432000Y-54512000D01*
X64434000Y-54514000D01*
X64435000Y-54516000D01*
X64437000Y-54518000D01*
X64438000Y-54520000D01*
X64440000Y-54522000D01*
X64441000Y-54525000D01*
X64442000Y-54527000D01*
X64443000Y-54530000D01*
X64443000Y-54532000D01*
X64444000Y-54535000D01*
X64444000Y-54537000D01*
X64445000Y-54540000D01*
X64445000Y-54542000D01*
X64445000Y-54545000D01*
X64445000Y-55185000D01*
X64445000Y-55188000D01*
X64445000Y-55190000D01*
X64444000Y-55193000D01*
X64444000Y-55195000D01*
X64443000Y-55198000D01*
X64443000Y-55200000D01*
X64442000Y-55203000D01*
X64441000Y-55205000D01*
X64440000Y-55208000D01*
X64438000Y-55210000D01*
X64437000Y-55212000D01*
X64435000Y-55214000D01*
X64434000Y-55216000D01*
X64432000Y-55218000D01*
X64430000Y-55220000D01*
X64428000Y-55222000D01*
X64426000Y-55224000D01*
X64424000Y-55225000D01*
X64422000Y-55227000D01*
X64420000Y-55228000D01*
X64418000Y-55230000D01*
X64415000Y-55231000D01*
X64413000Y-55232000D01*
X64410000Y-55233000D01*
X64408000Y-55233000D01*
X64405000Y-55234000D01*
X64403000Y-55234000D01*
X64400000Y-55235000D01*
X64398000Y-55235000D01*
X64395000Y-55235000D01*
X62805000Y-55235000D01*
X62802000Y-55235000D01*
X62800000Y-55235000D01*
X62797000Y-55234000D01*
X62795000Y-55234000D01*
X62792000Y-55233000D01*
X62790000Y-55233000D01*
X62787000Y-55232000D01*
X62785000Y-55231000D01*
X62782000Y-55230000D01*
X62780000Y-55228000D01*
X62778000Y-55227000D01*
X62776000Y-55225000D01*
X62774000Y-55224000D01*
X62772000Y-55222000D01*
X62770000Y-55220000D01*
X62768000Y-55218000D01*
X62766000Y-55216000D01*
X62765000Y-55214000D01*
X62763000Y-55212000D01*
X62762000Y-55210000D01*
X62760000Y-55208000D01*
X62759000Y-55205000D01*
X62758000Y-55203000D01*
X62757000Y-55200000D01*
X62757000Y-55198000D01*
X62756000Y-55195000D01*
X62756000Y-55193000D01*
X62755000Y-55190000D01*
X62755000Y-55188000D01*
X62755000Y-55185000D01*
X62755000Y-54545000D01*
X62755000Y-54542000D01*
X62755000Y-54540000D01*
X62756000Y-54537000D01*
X62756000Y-54535000D01*
X62757000Y-54532000D01*
X62757000Y-54530000D01*
X62758000Y-54527000D01*
X62759000Y-54525000D01*
X62760000Y-54522000D01*
X62762000Y-54520000D01*
X62763000Y-54518000D01*
X62765000Y-54516000D01*
X62766000Y-54514000D01*
X62768000Y-54512000D01*
X62770000Y-54510000D01*
X62772000Y-54508000D01*
X62774000Y-54506000D01*
X62776000Y-54505000D01*
X62778000Y-54503000D01*
X62780000Y-54502000D01*
X62782000Y-54500000D01*
X62785000Y-54499000D01*
X62787000Y-54498000D01*
X62790000Y-54497000D01*
X62792000Y-54497000D01*
X62795000Y-54496000D01*
X62797000Y-54496000D01*
X62800000Y-54495000D01*
X62802000Y-54495000D01*
X62805000Y-54495000D01*
X64395000Y-54495000D01*
X64398000Y-54495000D01*
X64400000Y-54495000D01*
X64403000Y-54496000D01*
G36*
X64403000Y-54496000D02*
G01*
X64405000Y-54496000D01*
X64408000Y-54497000D01*
X64410000Y-54497000D01*
X64413000Y-54498000D01*
X64415000Y-54499000D01*
X64418000Y-54500000D01*
X64420000Y-54502000D01*
X64422000Y-54503000D01*
X64424000Y-54505000D01*
X64426000Y-54506000D01*
X64428000Y-54508000D01*
X64430000Y-54510000D01*
X64432000Y-54512000D01*
X64434000Y-54514000D01*
X64435000Y-54516000D01*
X64437000Y-54518000D01*
X64438000Y-54520000D01*
X64440000Y-54522000D01*
X64441000Y-54525000D01*
X64442000Y-54527000D01*
X64443000Y-54530000D01*
X64443000Y-54532000D01*
X64444000Y-54535000D01*
X64444000Y-54537000D01*
X64445000Y-54540000D01*
X64445000Y-54542000D01*
X64445000Y-54545000D01*
X64445000Y-55185000D01*
X64445000Y-55188000D01*
X64445000Y-55190000D01*
X64444000Y-55193000D01*
X64444000Y-55195000D01*
X64443000Y-55198000D01*
X64443000Y-55200000D01*
X64442000Y-55203000D01*
X64441000Y-55205000D01*
X64440000Y-55208000D01*
X64438000Y-55210000D01*
X64437000Y-55212000D01*
X64435000Y-55214000D01*
X64434000Y-55216000D01*
X64432000Y-55218000D01*
X64430000Y-55220000D01*
X64428000Y-55222000D01*
X64426000Y-55224000D01*
X64424000Y-55225000D01*
X64422000Y-55227000D01*
X64420000Y-55228000D01*
X64418000Y-55230000D01*
X64415000Y-55231000D01*
X64413000Y-55232000D01*
X64410000Y-55233000D01*
X64408000Y-55233000D01*
X64405000Y-55234000D01*
X64403000Y-55234000D01*
X64400000Y-55235000D01*
X64398000Y-55235000D01*
X64395000Y-55235000D01*
X62805000Y-55235000D01*
X62802000Y-55235000D01*
X62800000Y-55235000D01*
X62797000Y-55234000D01*
X62795000Y-55234000D01*
X62792000Y-55233000D01*
X62790000Y-55233000D01*
X62787000Y-55232000D01*
X62785000Y-55231000D01*
X62782000Y-55230000D01*
X62780000Y-55228000D01*
X62778000Y-55227000D01*
X62776000Y-55225000D01*
X62774000Y-55224000D01*
X62772000Y-55222000D01*
X62770000Y-55220000D01*
X62768000Y-55218000D01*
X62766000Y-55216000D01*
X62765000Y-55214000D01*
X62763000Y-55212000D01*
X62762000Y-55210000D01*
X62760000Y-55208000D01*
X62759000Y-55205000D01*
X62758000Y-55203000D01*
X62757000Y-55200000D01*
X62757000Y-55198000D01*
X62756000Y-55195000D01*
X62756000Y-55193000D01*
X62755000Y-55190000D01*
X62755000Y-55188000D01*
X62755000Y-55185000D01*
X62755000Y-54545000D01*
X62755000Y-54542000D01*
X62755000Y-54540000D01*
X62756000Y-54537000D01*
X62756000Y-54535000D01*
X62757000Y-54532000D01*
X62757000Y-54530000D01*
X62758000Y-54527000D01*
X62759000Y-54525000D01*
X62760000Y-54522000D01*
X62762000Y-54520000D01*
X62763000Y-54518000D01*
X62765000Y-54516000D01*
X62766000Y-54514000D01*
X62768000Y-54512000D01*
X62770000Y-54510000D01*
X62772000Y-54508000D01*
X62774000Y-54506000D01*
X62776000Y-54505000D01*
X62778000Y-54503000D01*
X62780000Y-54502000D01*
X62782000Y-54500000D01*
X62785000Y-54499000D01*
X62787000Y-54498000D01*
X62790000Y-54497000D01*
X62792000Y-54497000D01*
X62795000Y-54496000D01*
X62797000Y-54496000D01*
X62800000Y-54495000D01*
X62802000Y-54495000D01*
X62805000Y-54495000D01*
X64395000Y-54495000D01*
X64398000Y-54495000D01*
X64400000Y-54495000D01*
X64403000Y-54496000D01*
G37*
X64403000Y-55766000D02*
X64405000Y-55766000D01*
X64408000Y-55767000D01*
X64410000Y-55767000D01*
X64413000Y-55768000D01*
X64415000Y-55769000D01*
X64418000Y-55770000D01*
X64420000Y-55772000D01*
X64422000Y-55773000D01*
X64424000Y-55775000D01*
X64426000Y-55776000D01*
X64428000Y-55778000D01*
X64430000Y-55780000D01*
X64432000Y-55782000D01*
X64434000Y-55784000D01*
X64435000Y-55786000D01*
X64437000Y-55788000D01*
X64438000Y-55790000D01*
X64440000Y-55792000D01*
X64441000Y-55795000D01*
X64442000Y-55797000D01*
X64443000Y-55800000D01*
X64443000Y-55802000D01*
X64444000Y-55805000D01*
X64444000Y-55807000D01*
X64445000Y-55810000D01*
X64445000Y-55812000D01*
X64445000Y-55815000D01*
X64445000Y-56455000D01*
X64445000Y-56458000D01*
X64445000Y-56460000D01*
X64444000Y-56463000D01*
X64444000Y-56465000D01*
X64443000Y-56468000D01*
X64443000Y-56470000D01*
X64442000Y-56473000D01*
X64441000Y-56475000D01*
X64440000Y-56478000D01*
X64438000Y-56480000D01*
X64437000Y-56482000D01*
X64435000Y-56484000D01*
X64434000Y-56486000D01*
X64432000Y-56488000D01*
X64430000Y-56490000D01*
X64428000Y-56492000D01*
X64426000Y-56494000D01*
X64424000Y-56495000D01*
X64422000Y-56497000D01*
X64420000Y-56498000D01*
X64418000Y-56500000D01*
X64415000Y-56501000D01*
X64413000Y-56502000D01*
X64410000Y-56503000D01*
X64408000Y-56503000D01*
X64405000Y-56504000D01*
X64403000Y-56504000D01*
X64400000Y-56505000D01*
X64398000Y-56505000D01*
X64395000Y-56505000D01*
X62805000Y-56505000D01*
X62802000Y-56505000D01*
X62800000Y-56505000D01*
X62797000Y-56504000D01*
X62795000Y-56504000D01*
X62792000Y-56503000D01*
X62790000Y-56503000D01*
X62787000Y-56502000D01*
X62785000Y-56501000D01*
X62782000Y-56500000D01*
X62780000Y-56498000D01*
X62778000Y-56497000D01*
X62776000Y-56495000D01*
X62774000Y-56494000D01*
X62772000Y-56492000D01*
X62770000Y-56490000D01*
X62768000Y-56488000D01*
X62766000Y-56486000D01*
X62765000Y-56484000D01*
X62763000Y-56482000D01*
X62762000Y-56480000D01*
X62760000Y-56478000D01*
X62759000Y-56475000D01*
X62758000Y-56473000D01*
X62757000Y-56470000D01*
X62757000Y-56468000D01*
X62756000Y-56465000D01*
X62756000Y-56463000D01*
X62755000Y-56460000D01*
X62755000Y-56458000D01*
X62755000Y-56455000D01*
X62755000Y-55815000D01*
X62755000Y-55812000D01*
X62755000Y-55810000D01*
X62756000Y-55807000D01*
X62756000Y-55805000D01*
X62757000Y-55802000D01*
X62757000Y-55800000D01*
X62758000Y-55797000D01*
X62759000Y-55795000D01*
X62760000Y-55792000D01*
X62762000Y-55790000D01*
X62763000Y-55788000D01*
X62765000Y-55786000D01*
X62766000Y-55784000D01*
X62768000Y-55782000D01*
X62770000Y-55780000D01*
X62772000Y-55778000D01*
X62774000Y-55776000D01*
X62776000Y-55775000D01*
X62778000Y-55773000D01*
X62780000Y-55772000D01*
X62782000Y-55770000D01*
X62785000Y-55769000D01*
X62787000Y-55768000D01*
X62790000Y-55767000D01*
X62792000Y-55767000D01*
X62795000Y-55766000D01*
X62797000Y-55766000D01*
X62800000Y-55765000D01*
X62802000Y-55765000D01*
X62805000Y-55765000D01*
X64395000Y-55765000D01*
X64398000Y-55765000D01*
X64400000Y-55765000D01*
X64403000Y-55766000D01*
G36*
X64403000Y-55766000D02*
G01*
X64405000Y-55766000D01*
X64408000Y-55767000D01*
X64410000Y-55767000D01*
X64413000Y-55768000D01*
X64415000Y-55769000D01*
X64418000Y-55770000D01*
X64420000Y-55772000D01*
X64422000Y-55773000D01*
X64424000Y-55775000D01*
X64426000Y-55776000D01*
X64428000Y-55778000D01*
X64430000Y-55780000D01*
X64432000Y-55782000D01*
X64434000Y-55784000D01*
X64435000Y-55786000D01*
X64437000Y-55788000D01*
X64438000Y-55790000D01*
X64440000Y-55792000D01*
X64441000Y-55795000D01*
X64442000Y-55797000D01*
X64443000Y-55800000D01*
X64443000Y-55802000D01*
X64444000Y-55805000D01*
X64444000Y-55807000D01*
X64445000Y-55810000D01*
X64445000Y-55812000D01*
X64445000Y-55815000D01*
X64445000Y-56455000D01*
X64445000Y-56458000D01*
X64445000Y-56460000D01*
X64444000Y-56463000D01*
X64444000Y-56465000D01*
X64443000Y-56468000D01*
X64443000Y-56470000D01*
X64442000Y-56473000D01*
X64441000Y-56475000D01*
X64440000Y-56478000D01*
X64438000Y-56480000D01*
X64437000Y-56482000D01*
X64435000Y-56484000D01*
X64434000Y-56486000D01*
X64432000Y-56488000D01*
X64430000Y-56490000D01*
X64428000Y-56492000D01*
X64426000Y-56494000D01*
X64424000Y-56495000D01*
X64422000Y-56497000D01*
X64420000Y-56498000D01*
X64418000Y-56500000D01*
X64415000Y-56501000D01*
X64413000Y-56502000D01*
X64410000Y-56503000D01*
X64408000Y-56503000D01*
X64405000Y-56504000D01*
X64403000Y-56504000D01*
X64400000Y-56505000D01*
X64398000Y-56505000D01*
X64395000Y-56505000D01*
X62805000Y-56505000D01*
X62802000Y-56505000D01*
X62800000Y-56505000D01*
X62797000Y-56504000D01*
X62795000Y-56504000D01*
X62792000Y-56503000D01*
X62790000Y-56503000D01*
X62787000Y-56502000D01*
X62785000Y-56501000D01*
X62782000Y-56500000D01*
X62780000Y-56498000D01*
X62778000Y-56497000D01*
X62776000Y-56495000D01*
X62774000Y-56494000D01*
X62772000Y-56492000D01*
X62770000Y-56490000D01*
X62768000Y-56488000D01*
X62766000Y-56486000D01*
X62765000Y-56484000D01*
X62763000Y-56482000D01*
X62762000Y-56480000D01*
X62760000Y-56478000D01*
X62759000Y-56475000D01*
X62758000Y-56473000D01*
X62757000Y-56470000D01*
X62757000Y-56468000D01*
X62756000Y-56465000D01*
X62756000Y-56463000D01*
X62755000Y-56460000D01*
X62755000Y-56458000D01*
X62755000Y-56455000D01*
X62755000Y-55815000D01*
X62755000Y-55812000D01*
X62755000Y-55810000D01*
X62756000Y-55807000D01*
X62756000Y-55805000D01*
X62757000Y-55802000D01*
X62757000Y-55800000D01*
X62758000Y-55797000D01*
X62759000Y-55795000D01*
X62760000Y-55792000D01*
X62762000Y-55790000D01*
X62763000Y-55788000D01*
X62765000Y-55786000D01*
X62766000Y-55784000D01*
X62768000Y-55782000D01*
X62770000Y-55780000D01*
X62772000Y-55778000D01*
X62774000Y-55776000D01*
X62776000Y-55775000D01*
X62778000Y-55773000D01*
X62780000Y-55772000D01*
X62782000Y-55770000D01*
X62785000Y-55769000D01*
X62787000Y-55768000D01*
X62790000Y-55767000D01*
X62792000Y-55767000D01*
X62795000Y-55766000D01*
X62797000Y-55766000D01*
X62800000Y-55765000D01*
X62802000Y-55765000D01*
X62805000Y-55765000D01*
X64395000Y-55765000D01*
X64398000Y-55765000D01*
X64400000Y-55765000D01*
X64403000Y-55766000D01*
G37*
X64403000Y-57036000D02*
X64405000Y-57036000D01*
X64408000Y-57037000D01*
X64410000Y-57037000D01*
X64413000Y-57038000D01*
X64415000Y-57039000D01*
X64418000Y-57040000D01*
X64420000Y-57042000D01*
X64422000Y-57043000D01*
X64424000Y-57045000D01*
X64426000Y-57046000D01*
X64428000Y-57048000D01*
X64430000Y-57050000D01*
X64432000Y-57052000D01*
X64434000Y-57054000D01*
X64435000Y-57056000D01*
X64437000Y-57058000D01*
X64438000Y-57060000D01*
X64440000Y-57062000D01*
X64441000Y-57065000D01*
X64442000Y-57067000D01*
X64443000Y-57070000D01*
X64443000Y-57072000D01*
X64444000Y-57075000D01*
X64444000Y-57077000D01*
X64445000Y-57080000D01*
X64445000Y-57082000D01*
X64445000Y-57085000D01*
X64445000Y-57725000D01*
X64445000Y-57728000D01*
X64445000Y-57730000D01*
X64444000Y-57733000D01*
X64444000Y-57735000D01*
X64443000Y-57738000D01*
X64443000Y-57740000D01*
X64442000Y-57743000D01*
X64441000Y-57745000D01*
X64440000Y-57748000D01*
X64438000Y-57750000D01*
X64437000Y-57752000D01*
X64435000Y-57754000D01*
X64434000Y-57756000D01*
X64432000Y-57758000D01*
X64430000Y-57760000D01*
X64428000Y-57762000D01*
X64426000Y-57764000D01*
X64424000Y-57765000D01*
X64422000Y-57767000D01*
X64420000Y-57768000D01*
X64418000Y-57770000D01*
X64415000Y-57771000D01*
X64413000Y-57772000D01*
X64410000Y-57773000D01*
X64408000Y-57773000D01*
X64405000Y-57774000D01*
X64403000Y-57774000D01*
X64400000Y-57775000D01*
X64398000Y-57775000D01*
X64395000Y-57775000D01*
X62805000Y-57775000D01*
X62802000Y-57775000D01*
X62800000Y-57775000D01*
X62797000Y-57774000D01*
X62795000Y-57774000D01*
X62792000Y-57773000D01*
X62790000Y-57773000D01*
X62787000Y-57772000D01*
X62785000Y-57771000D01*
X62782000Y-57770000D01*
X62780000Y-57768000D01*
X62778000Y-57767000D01*
X62776000Y-57765000D01*
X62774000Y-57764000D01*
X62772000Y-57762000D01*
X62770000Y-57760000D01*
X62768000Y-57758000D01*
X62766000Y-57756000D01*
X62765000Y-57754000D01*
X62763000Y-57752000D01*
X62762000Y-57750000D01*
X62760000Y-57748000D01*
X62759000Y-57745000D01*
X62758000Y-57743000D01*
X62757000Y-57740000D01*
X62757000Y-57738000D01*
X62756000Y-57735000D01*
X62756000Y-57733000D01*
X62755000Y-57730000D01*
X62755000Y-57728000D01*
X62755000Y-57725000D01*
X62755000Y-57085000D01*
X62755000Y-57082000D01*
X62755000Y-57080000D01*
X62756000Y-57077000D01*
X62756000Y-57075000D01*
X62757000Y-57072000D01*
X62757000Y-57070000D01*
X62758000Y-57067000D01*
X62759000Y-57065000D01*
X62760000Y-57062000D01*
X62762000Y-57060000D01*
X62763000Y-57058000D01*
X62765000Y-57056000D01*
X62766000Y-57054000D01*
X62768000Y-57052000D01*
X62770000Y-57050000D01*
X62772000Y-57048000D01*
X62774000Y-57046000D01*
X62776000Y-57045000D01*
X62778000Y-57043000D01*
X62780000Y-57042000D01*
X62782000Y-57040000D01*
X62785000Y-57039000D01*
X62787000Y-57038000D01*
X62790000Y-57037000D01*
X62792000Y-57037000D01*
X62795000Y-57036000D01*
X62797000Y-57036000D01*
X62800000Y-57035000D01*
X62802000Y-57035000D01*
X62805000Y-57035000D01*
X64395000Y-57035000D01*
X64398000Y-57035000D01*
X64400000Y-57035000D01*
X64403000Y-57036000D01*
G36*
X64403000Y-57036000D02*
G01*
X64405000Y-57036000D01*
X64408000Y-57037000D01*
X64410000Y-57037000D01*
X64413000Y-57038000D01*
X64415000Y-57039000D01*
X64418000Y-57040000D01*
X64420000Y-57042000D01*
X64422000Y-57043000D01*
X64424000Y-57045000D01*
X64426000Y-57046000D01*
X64428000Y-57048000D01*
X64430000Y-57050000D01*
X64432000Y-57052000D01*
X64434000Y-57054000D01*
X64435000Y-57056000D01*
X64437000Y-57058000D01*
X64438000Y-57060000D01*
X64440000Y-57062000D01*
X64441000Y-57065000D01*
X64442000Y-57067000D01*
X64443000Y-57070000D01*
X64443000Y-57072000D01*
X64444000Y-57075000D01*
X64444000Y-57077000D01*
X64445000Y-57080000D01*
X64445000Y-57082000D01*
X64445000Y-57085000D01*
X64445000Y-57725000D01*
X64445000Y-57728000D01*
X64445000Y-57730000D01*
X64444000Y-57733000D01*
X64444000Y-57735000D01*
X64443000Y-57738000D01*
X64443000Y-57740000D01*
X64442000Y-57743000D01*
X64441000Y-57745000D01*
X64440000Y-57748000D01*
X64438000Y-57750000D01*
X64437000Y-57752000D01*
X64435000Y-57754000D01*
X64434000Y-57756000D01*
X64432000Y-57758000D01*
X64430000Y-57760000D01*
X64428000Y-57762000D01*
X64426000Y-57764000D01*
X64424000Y-57765000D01*
X64422000Y-57767000D01*
X64420000Y-57768000D01*
X64418000Y-57770000D01*
X64415000Y-57771000D01*
X64413000Y-57772000D01*
X64410000Y-57773000D01*
X64408000Y-57773000D01*
X64405000Y-57774000D01*
X64403000Y-57774000D01*
X64400000Y-57775000D01*
X64398000Y-57775000D01*
X64395000Y-57775000D01*
X62805000Y-57775000D01*
X62802000Y-57775000D01*
X62800000Y-57775000D01*
X62797000Y-57774000D01*
X62795000Y-57774000D01*
X62792000Y-57773000D01*
X62790000Y-57773000D01*
X62787000Y-57772000D01*
X62785000Y-57771000D01*
X62782000Y-57770000D01*
X62780000Y-57768000D01*
X62778000Y-57767000D01*
X62776000Y-57765000D01*
X62774000Y-57764000D01*
X62772000Y-57762000D01*
X62770000Y-57760000D01*
X62768000Y-57758000D01*
X62766000Y-57756000D01*
X62765000Y-57754000D01*
X62763000Y-57752000D01*
X62762000Y-57750000D01*
X62760000Y-57748000D01*
X62759000Y-57745000D01*
X62758000Y-57743000D01*
X62757000Y-57740000D01*
X62757000Y-57738000D01*
X62756000Y-57735000D01*
X62756000Y-57733000D01*
X62755000Y-57730000D01*
X62755000Y-57728000D01*
X62755000Y-57725000D01*
X62755000Y-57085000D01*
X62755000Y-57082000D01*
X62755000Y-57080000D01*
X62756000Y-57077000D01*
X62756000Y-57075000D01*
X62757000Y-57072000D01*
X62757000Y-57070000D01*
X62758000Y-57067000D01*
X62759000Y-57065000D01*
X62760000Y-57062000D01*
X62762000Y-57060000D01*
X62763000Y-57058000D01*
X62765000Y-57056000D01*
X62766000Y-57054000D01*
X62768000Y-57052000D01*
X62770000Y-57050000D01*
X62772000Y-57048000D01*
X62774000Y-57046000D01*
X62776000Y-57045000D01*
X62778000Y-57043000D01*
X62780000Y-57042000D01*
X62782000Y-57040000D01*
X62785000Y-57039000D01*
X62787000Y-57038000D01*
X62790000Y-57037000D01*
X62792000Y-57037000D01*
X62795000Y-57036000D01*
X62797000Y-57036000D01*
X62800000Y-57035000D01*
X62802000Y-57035000D01*
X62805000Y-57035000D01*
X64395000Y-57035000D01*
X64398000Y-57035000D01*
X64400000Y-57035000D01*
X64403000Y-57036000D01*
G37*
X69803000Y-53226000D02*
X69805000Y-53226000D01*
X69808000Y-53227000D01*
X69810000Y-53227000D01*
X69813000Y-53228000D01*
X69815000Y-53229000D01*
X69818000Y-53230000D01*
X69820000Y-53232000D01*
X69822000Y-53233000D01*
X69824000Y-53235000D01*
X69826000Y-53236000D01*
X69828000Y-53238000D01*
X69830000Y-53240000D01*
X69832000Y-53242000D01*
X69834000Y-53244000D01*
X69835000Y-53246000D01*
X69837000Y-53248000D01*
X69838000Y-53250000D01*
X69840000Y-53252000D01*
X69841000Y-53255000D01*
X69842000Y-53257000D01*
X69843000Y-53260000D01*
X69843000Y-53262000D01*
X69844000Y-53265000D01*
X69844000Y-53267000D01*
X69845000Y-53270000D01*
X69845000Y-53272000D01*
X69845000Y-53275000D01*
X69845000Y-53915000D01*
X69845000Y-53918000D01*
X69845000Y-53920000D01*
X69844000Y-53923000D01*
X69844000Y-53925000D01*
X69843000Y-53928000D01*
X69843000Y-53930000D01*
X69842000Y-53933000D01*
X69841000Y-53935000D01*
X69840000Y-53938000D01*
X69838000Y-53940000D01*
X69837000Y-53942000D01*
X69835000Y-53944000D01*
X69834000Y-53946000D01*
X69832000Y-53948000D01*
X69830000Y-53950000D01*
X69828000Y-53952000D01*
X69826000Y-53954000D01*
X69824000Y-53955000D01*
X69822000Y-53957000D01*
X69820000Y-53958000D01*
X69818000Y-53960000D01*
X69815000Y-53961000D01*
X69813000Y-53962000D01*
X69810000Y-53963000D01*
X69808000Y-53963000D01*
X69805000Y-53964000D01*
X69803000Y-53964000D01*
X69800000Y-53965000D01*
X69798000Y-53965000D01*
X69795000Y-53965000D01*
X68205000Y-53965000D01*
X68202000Y-53965000D01*
X68200000Y-53965000D01*
X68197000Y-53964000D01*
X68195000Y-53964000D01*
X68192000Y-53963000D01*
X68190000Y-53963000D01*
X68187000Y-53962000D01*
X68185000Y-53961000D01*
X68182000Y-53960000D01*
X68180000Y-53958000D01*
X68178000Y-53957000D01*
X68176000Y-53955000D01*
X68174000Y-53954000D01*
X68172000Y-53952000D01*
X68170000Y-53950000D01*
X68168000Y-53948000D01*
X68166000Y-53946000D01*
X68165000Y-53944000D01*
X68163000Y-53942000D01*
X68162000Y-53940000D01*
X68160000Y-53938000D01*
X68159000Y-53935000D01*
X68158000Y-53933000D01*
X68157000Y-53930000D01*
X68157000Y-53928000D01*
X68156000Y-53925000D01*
X68156000Y-53923000D01*
X68155000Y-53920000D01*
X68155000Y-53918000D01*
X68155000Y-53915000D01*
X68155000Y-53275000D01*
X68155000Y-53272000D01*
X68155000Y-53270000D01*
X68156000Y-53267000D01*
X68156000Y-53265000D01*
X68157000Y-53262000D01*
X68157000Y-53260000D01*
X68158000Y-53257000D01*
X68159000Y-53255000D01*
X68160000Y-53252000D01*
X68162000Y-53250000D01*
X68163000Y-53248000D01*
X68165000Y-53246000D01*
X68166000Y-53244000D01*
X68168000Y-53242000D01*
X68170000Y-53240000D01*
X68172000Y-53238000D01*
X68174000Y-53236000D01*
X68176000Y-53235000D01*
X68178000Y-53233000D01*
X68180000Y-53232000D01*
X68182000Y-53230000D01*
X68185000Y-53229000D01*
X68187000Y-53228000D01*
X68190000Y-53227000D01*
X68192000Y-53227000D01*
X68195000Y-53226000D01*
X68197000Y-53226000D01*
X68200000Y-53225000D01*
X68202000Y-53225000D01*
X68205000Y-53225000D01*
X69795000Y-53225000D01*
X69798000Y-53225000D01*
X69800000Y-53225000D01*
X69803000Y-53226000D01*
G36*
X69803000Y-53226000D02*
G01*
X69805000Y-53226000D01*
X69808000Y-53227000D01*
X69810000Y-53227000D01*
X69813000Y-53228000D01*
X69815000Y-53229000D01*
X69818000Y-53230000D01*
X69820000Y-53232000D01*
X69822000Y-53233000D01*
X69824000Y-53235000D01*
X69826000Y-53236000D01*
X69828000Y-53238000D01*
X69830000Y-53240000D01*
X69832000Y-53242000D01*
X69834000Y-53244000D01*
X69835000Y-53246000D01*
X69837000Y-53248000D01*
X69838000Y-53250000D01*
X69840000Y-53252000D01*
X69841000Y-53255000D01*
X69842000Y-53257000D01*
X69843000Y-53260000D01*
X69843000Y-53262000D01*
X69844000Y-53265000D01*
X69844000Y-53267000D01*
X69845000Y-53270000D01*
X69845000Y-53272000D01*
X69845000Y-53275000D01*
X69845000Y-53915000D01*
X69845000Y-53918000D01*
X69845000Y-53920000D01*
X69844000Y-53923000D01*
X69844000Y-53925000D01*
X69843000Y-53928000D01*
X69843000Y-53930000D01*
X69842000Y-53933000D01*
X69841000Y-53935000D01*
X69840000Y-53938000D01*
X69838000Y-53940000D01*
X69837000Y-53942000D01*
X69835000Y-53944000D01*
X69834000Y-53946000D01*
X69832000Y-53948000D01*
X69830000Y-53950000D01*
X69828000Y-53952000D01*
X69826000Y-53954000D01*
X69824000Y-53955000D01*
X69822000Y-53957000D01*
X69820000Y-53958000D01*
X69818000Y-53960000D01*
X69815000Y-53961000D01*
X69813000Y-53962000D01*
X69810000Y-53963000D01*
X69808000Y-53963000D01*
X69805000Y-53964000D01*
X69803000Y-53964000D01*
X69800000Y-53965000D01*
X69798000Y-53965000D01*
X69795000Y-53965000D01*
X68205000Y-53965000D01*
X68202000Y-53965000D01*
X68200000Y-53965000D01*
X68197000Y-53964000D01*
X68195000Y-53964000D01*
X68192000Y-53963000D01*
X68190000Y-53963000D01*
X68187000Y-53962000D01*
X68185000Y-53961000D01*
X68182000Y-53960000D01*
X68180000Y-53958000D01*
X68178000Y-53957000D01*
X68176000Y-53955000D01*
X68174000Y-53954000D01*
X68172000Y-53952000D01*
X68170000Y-53950000D01*
X68168000Y-53948000D01*
X68166000Y-53946000D01*
X68165000Y-53944000D01*
X68163000Y-53942000D01*
X68162000Y-53940000D01*
X68160000Y-53938000D01*
X68159000Y-53935000D01*
X68158000Y-53933000D01*
X68157000Y-53930000D01*
X68157000Y-53928000D01*
X68156000Y-53925000D01*
X68156000Y-53923000D01*
X68155000Y-53920000D01*
X68155000Y-53918000D01*
X68155000Y-53915000D01*
X68155000Y-53275000D01*
X68155000Y-53272000D01*
X68155000Y-53270000D01*
X68156000Y-53267000D01*
X68156000Y-53265000D01*
X68157000Y-53262000D01*
X68157000Y-53260000D01*
X68158000Y-53257000D01*
X68159000Y-53255000D01*
X68160000Y-53252000D01*
X68162000Y-53250000D01*
X68163000Y-53248000D01*
X68165000Y-53246000D01*
X68166000Y-53244000D01*
X68168000Y-53242000D01*
X68170000Y-53240000D01*
X68172000Y-53238000D01*
X68174000Y-53236000D01*
X68176000Y-53235000D01*
X68178000Y-53233000D01*
X68180000Y-53232000D01*
X68182000Y-53230000D01*
X68185000Y-53229000D01*
X68187000Y-53228000D01*
X68190000Y-53227000D01*
X68192000Y-53227000D01*
X68195000Y-53226000D01*
X68197000Y-53226000D01*
X68200000Y-53225000D01*
X68202000Y-53225000D01*
X68205000Y-53225000D01*
X69795000Y-53225000D01*
X69798000Y-53225000D01*
X69800000Y-53225000D01*
X69803000Y-53226000D01*
G37*
X69803000Y-54496000D02*
X69805000Y-54496000D01*
X69808000Y-54497000D01*
X69810000Y-54497000D01*
X69813000Y-54498000D01*
X69815000Y-54499000D01*
X69818000Y-54500000D01*
X69820000Y-54502000D01*
X69822000Y-54503000D01*
X69824000Y-54505000D01*
X69826000Y-54506000D01*
X69828000Y-54508000D01*
X69830000Y-54510000D01*
X69832000Y-54512000D01*
X69834000Y-54514000D01*
X69835000Y-54516000D01*
X69837000Y-54518000D01*
X69838000Y-54520000D01*
X69840000Y-54522000D01*
X69841000Y-54525000D01*
X69842000Y-54527000D01*
X69843000Y-54530000D01*
X69843000Y-54532000D01*
X69844000Y-54535000D01*
X69844000Y-54537000D01*
X69845000Y-54540000D01*
X69845000Y-54542000D01*
X69845000Y-54545000D01*
X69845000Y-55185000D01*
X69845000Y-55188000D01*
X69845000Y-55190000D01*
X69844000Y-55193000D01*
X69844000Y-55195000D01*
X69843000Y-55198000D01*
X69843000Y-55200000D01*
X69842000Y-55203000D01*
X69841000Y-55205000D01*
X69840000Y-55208000D01*
X69838000Y-55210000D01*
X69837000Y-55212000D01*
X69835000Y-55214000D01*
X69834000Y-55216000D01*
X69832000Y-55218000D01*
X69830000Y-55220000D01*
X69828000Y-55222000D01*
X69826000Y-55224000D01*
X69824000Y-55225000D01*
X69822000Y-55227000D01*
X69820000Y-55228000D01*
X69818000Y-55230000D01*
X69815000Y-55231000D01*
X69813000Y-55232000D01*
X69810000Y-55233000D01*
X69808000Y-55233000D01*
X69805000Y-55234000D01*
X69803000Y-55234000D01*
X69800000Y-55235000D01*
X69798000Y-55235000D01*
X69795000Y-55235000D01*
X68205000Y-55235000D01*
X68202000Y-55235000D01*
X68200000Y-55235000D01*
X68197000Y-55234000D01*
X68195000Y-55234000D01*
X68192000Y-55233000D01*
X68190000Y-55233000D01*
X68187000Y-55232000D01*
X68185000Y-55231000D01*
X68182000Y-55230000D01*
X68180000Y-55228000D01*
X68178000Y-55227000D01*
X68176000Y-55225000D01*
X68174000Y-55224000D01*
X68172000Y-55222000D01*
X68170000Y-55220000D01*
X68168000Y-55218000D01*
X68166000Y-55216000D01*
X68165000Y-55214000D01*
X68163000Y-55212000D01*
X68162000Y-55210000D01*
X68160000Y-55208000D01*
X68159000Y-55205000D01*
X68158000Y-55203000D01*
X68157000Y-55200000D01*
X68157000Y-55198000D01*
X68156000Y-55195000D01*
X68156000Y-55193000D01*
X68155000Y-55190000D01*
X68155000Y-55188000D01*
X68155000Y-55185000D01*
X68155000Y-54545000D01*
X68155000Y-54542000D01*
X68155000Y-54540000D01*
X68156000Y-54537000D01*
X68156000Y-54535000D01*
X68157000Y-54532000D01*
X68157000Y-54530000D01*
X68158000Y-54527000D01*
X68159000Y-54525000D01*
X68160000Y-54522000D01*
X68162000Y-54520000D01*
X68163000Y-54518000D01*
X68165000Y-54516000D01*
X68166000Y-54514000D01*
X68168000Y-54512000D01*
X68170000Y-54510000D01*
X68172000Y-54508000D01*
X68174000Y-54506000D01*
X68176000Y-54505000D01*
X68178000Y-54503000D01*
X68180000Y-54502000D01*
X68182000Y-54500000D01*
X68185000Y-54499000D01*
X68187000Y-54498000D01*
X68190000Y-54497000D01*
X68192000Y-54497000D01*
X68195000Y-54496000D01*
X68197000Y-54496000D01*
X68200000Y-54495000D01*
X68202000Y-54495000D01*
X68205000Y-54495000D01*
X69795000Y-54495000D01*
X69798000Y-54495000D01*
X69800000Y-54495000D01*
X69803000Y-54496000D01*
G36*
X69803000Y-54496000D02*
G01*
X69805000Y-54496000D01*
X69808000Y-54497000D01*
X69810000Y-54497000D01*
X69813000Y-54498000D01*
X69815000Y-54499000D01*
X69818000Y-54500000D01*
X69820000Y-54502000D01*
X69822000Y-54503000D01*
X69824000Y-54505000D01*
X69826000Y-54506000D01*
X69828000Y-54508000D01*
X69830000Y-54510000D01*
X69832000Y-54512000D01*
X69834000Y-54514000D01*
X69835000Y-54516000D01*
X69837000Y-54518000D01*
X69838000Y-54520000D01*
X69840000Y-54522000D01*
X69841000Y-54525000D01*
X69842000Y-54527000D01*
X69843000Y-54530000D01*
X69843000Y-54532000D01*
X69844000Y-54535000D01*
X69844000Y-54537000D01*
X69845000Y-54540000D01*
X69845000Y-54542000D01*
X69845000Y-54545000D01*
X69845000Y-55185000D01*
X69845000Y-55188000D01*
X69845000Y-55190000D01*
X69844000Y-55193000D01*
X69844000Y-55195000D01*
X69843000Y-55198000D01*
X69843000Y-55200000D01*
X69842000Y-55203000D01*
X69841000Y-55205000D01*
X69840000Y-55208000D01*
X69838000Y-55210000D01*
X69837000Y-55212000D01*
X69835000Y-55214000D01*
X69834000Y-55216000D01*
X69832000Y-55218000D01*
X69830000Y-55220000D01*
X69828000Y-55222000D01*
X69826000Y-55224000D01*
X69824000Y-55225000D01*
X69822000Y-55227000D01*
X69820000Y-55228000D01*
X69818000Y-55230000D01*
X69815000Y-55231000D01*
X69813000Y-55232000D01*
X69810000Y-55233000D01*
X69808000Y-55233000D01*
X69805000Y-55234000D01*
X69803000Y-55234000D01*
X69800000Y-55235000D01*
X69798000Y-55235000D01*
X69795000Y-55235000D01*
X68205000Y-55235000D01*
X68202000Y-55235000D01*
X68200000Y-55235000D01*
X68197000Y-55234000D01*
X68195000Y-55234000D01*
X68192000Y-55233000D01*
X68190000Y-55233000D01*
X68187000Y-55232000D01*
X68185000Y-55231000D01*
X68182000Y-55230000D01*
X68180000Y-55228000D01*
X68178000Y-55227000D01*
X68176000Y-55225000D01*
X68174000Y-55224000D01*
X68172000Y-55222000D01*
X68170000Y-55220000D01*
X68168000Y-55218000D01*
X68166000Y-55216000D01*
X68165000Y-55214000D01*
X68163000Y-55212000D01*
X68162000Y-55210000D01*
X68160000Y-55208000D01*
X68159000Y-55205000D01*
X68158000Y-55203000D01*
X68157000Y-55200000D01*
X68157000Y-55198000D01*
X68156000Y-55195000D01*
X68156000Y-55193000D01*
X68155000Y-55190000D01*
X68155000Y-55188000D01*
X68155000Y-55185000D01*
X68155000Y-54545000D01*
X68155000Y-54542000D01*
X68155000Y-54540000D01*
X68156000Y-54537000D01*
X68156000Y-54535000D01*
X68157000Y-54532000D01*
X68157000Y-54530000D01*
X68158000Y-54527000D01*
X68159000Y-54525000D01*
X68160000Y-54522000D01*
X68162000Y-54520000D01*
X68163000Y-54518000D01*
X68165000Y-54516000D01*
X68166000Y-54514000D01*
X68168000Y-54512000D01*
X68170000Y-54510000D01*
X68172000Y-54508000D01*
X68174000Y-54506000D01*
X68176000Y-54505000D01*
X68178000Y-54503000D01*
X68180000Y-54502000D01*
X68182000Y-54500000D01*
X68185000Y-54499000D01*
X68187000Y-54498000D01*
X68190000Y-54497000D01*
X68192000Y-54497000D01*
X68195000Y-54496000D01*
X68197000Y-54496000D01*
X68200000Y-54495000D01*
X68202000Y-54495000D01*
X68205000Y-54495000D01*
X69795000Y-54495000D01*
X69798000Y-54495000D01*
X69800000Y-54495000D01*
X69803000Y-54496000D01*
G37*
X69803000Y-55766000D02*
X69805000Y-55766000D01*
X69808000Y-55767000D01*
X69810000Y-55767000D01*
X69813000Y-55768000D01*
X69815000Y-55769000D01*
X69818000Y-55770000D01*
X69820000Y-55772000D01*
X69822000Y-55773000D01*
X69824000Y-55775000D01*
X69826000Y-55776000D01*
X69828000Y-55778000D01*
X69830000Y-55780000D01*
X69832000Y-55782000D01*
X69834000Y-55784000D01*
X69835000Y-55786000D01*
X69837000Y-55788000D01*
X69838000Y-55790000D01*
X69840000Y-55792000D01*
X69841000Y-55795000D01*
X69842000Y-55797000D01*
X69843000Y-55800000D01*
X69843000Y-55802000D01*
X69844000Y-55805000D01*
X69844000Y-55807000D01*
X69845000Y-55810000D01*
X69845000Y-55812000D01*
X69845000Y-55815000D01*
X69845000Y-56455000D01*
X69845000Y-56458000D01*
X69845000Y-56460000D01*
X69844000Y-56463000D01*
X69844000Y-56465000D01*
X69843000Y-56468000D01*
X69843000Y-56470000D01*
X69842000Y-56473000D01*
X69841000Y-56475000D01*
X69840000Y-56478000D01*
X69838000Y-56480000D01*
X69837000Y-56482000D01*
X69835000Y-56484000D01*
X69834000Y-56486000D01*
X69832000Y-56488000D01*
X69830000Y-56490000D01*
X69828000Y-56492000D01*
X69826000Y-56494000D01*
X69824000Y-56495000D01*
X69822000Y-56497000D01*
X69820000Y-56498000D01*
X69818000Y-56500000D01*
X69815000Y-56501000D01*
X69813000Y-56502000D01*
X69810000Y-56503000D01*
X69808000Y-56503000D01*
X69805000Y-56504000D01*
X69803000Y-56504000D01*
X69800000Y-56505000D01*
X69798000Y-56505000D01*
X69795000Y-56505000D01*
X68205000Y-56505000D01*
X68202000Y-56505000D01*
X68200000Y-56505000D01*
X68197000Y-56504000D01*
X68195000Y-56504000D01*
X68192000Y-56503000D01*
X68190000Y-56503000D01*
X68187000Y-56502000D01*
X68185000Y-56501000D01*
X68182000Y-56500000D01*
X68180000Y-56498000D01*
X68178000Y-56497000D01*
X68176000Y-56495000D01*
X68174000Y-56494000D01*
X68172000Y-56492000D01*
X68170000Y-56490000D01*
X68168000Y-56488000D01*
X68166000Y-56486000D01*
X68165000Y-56484000D01*
X68163000Y-56482000D01*
X68162000Y-56480000D01*
X68160000Y-56478000D01*
X68159000Y-56475000D01*
X68158000Y-56473000D01*
X68157000Y-56470000D01*
X68157000Y-56468000D01*
X68156000Y-56465000D01*
X68156000Y-56463000D01*
X68155000Y-56460000D01*
X68155000Y-56458000D01*
X68155000Y-56455000D01*
X68155000Y-55815000D01*
X68155000Y-55812000D01*
X68155000Y-55810000D01*
X68156000Y-55807000D01*
X68156000Y-55805000D01*
X68157000Y-55802000D01*
X68157000Y-55800000D01*
X68158000Y-55797000D01*
X68159000Y-55795000D01*
X68160000Y-55792000D01*
X68162000Y-55790000D01*
X68163000Y-55788000D01*
X68165000Y-55786000D01*
X68166000Y-55784000D01*
X68168000Y-55782000D01*
X68170000Y-55780000D01*
X68172000Y-55778000D01*
X68174000Y-55776000D01*
X68176000Y-55775000D01*
X68178000Y-55773000D01*
X68180000Y-55772000D01*
X68182000Y-55770000D01*
X68185000Y-55769000D01*
X68187000Y-55768000D01*
X68190000Y-55767000D01*
X68192000Y-55767000D01*
X68195000Y-55766000D01*
X68197000Y-55766000D01*
X68200000Y-55765000D01*
X68202000Y-55765000D01*
X68205000Y-55765000D01*
X69795000Y-55765000D01*
X69798000Y-55765000D01*
X69800000Y-55765000D01*
X69803000Y-55766000D01*
G36*
X69803000Y-55766000D02*
G01*
X69805000Y-55766000D01*
X69808000Y-55767000D01*
X69810000Y-55767000D01*
X69813000Y-55768000D01*
X69815000Y-55769000D01*
X69818000Y-55770000D01*
X69820000Y-55772000D01*
X69822000Y-55773000D01*
X69824000Y-55775000D01*
X69826000Y-55776000D01*
X69828000Y-55778000D01*
X69830000Y-55780000D01*
X69832000Y-55782000D01*
X69834000Y-55784000D01*
X69835000Y-55786000D01*
X69837000Y-55788000D01*
X69838000Y-55790000D01*
X69840000Y-55792000D01*
X69841000Y-55795000D01*
X69842000Y-55797000D01*
X69843000Y-55800000D01*
X69843000Y-55802000D01*
X69844000Y-55805000D01*
X69844000Y-55807000D01*
X69845000Y-55810000D01*
X69845000Y-55812000D01*
X69845000Y-55815000D01*
X69845000Y-56455000D01*
X69845000Y-56458000D01*
X69845000Y-56460000D01*
X69844000Y-56463000D01*
X69844000Y-56465000D01*
X69843000Y-56468000D01*
X69843000Y-56470000D01*
X69842000Y-56473000D01*
X69841000Y-56475000D01*
X69840000Y-56478000D01*
X69838000Y-56480000D01*
X69837000Y-56482000D01*
X69835000Y-56484000D01*
X69834000Y-56486000D01*
X69832000Y-56488000D01*
X69830000Y-56490000D01*
X69828000Y-56492000D01*
X69826000Y-56494000D01*
X69824000Y-56495000D01*
X69822000Y-56497000D01*
X69820000Y-56498000D01*
X69818000Y-56500000D01*
X69815000Y-56501000D01*
X69813000Y-56502000D01*
X69810000Y-56503000D01*
X69808000Y-56503000D01*
X69805000Y-56504000D01*
X69803000Y-56504000D01*
X69800000Y-56505000D01*
X69798000Y-56505000D01*
X69795000Y-56505000D01*
X68205000Y-56505000D01*
X68202000Y-56505000D01*
X68200000Y-56505000D01*
X68197000Y-56504000D01*
X68195000Y-56504000D01*
X68192000Y-56503000D01*
X68190000Y-56503000D01*
X68187000Y-56502000D01*
X68185000Y-56501000D01*
X68182000Y-56500000D01*
X68180000Y-56498000D01*
X68178000Y-56497000D01*
X68176000Y-56495000D01*
X68174000Y-56494000D01*
X68172000Y-56492000D01*
X68170000Y-56490000D01*
X68168000Y-56488000D01*
X68166000Y-56486000D01*
X68165000Y-56484000D01*
X68163000Y-56482000D01*
X68162000Y-56480000D01*
X68160000Y-56478000D01*
X68159000Y-56475000D01*
X68158000Y-56473000D01*
X68157000Y-56470000D01*
X68157000Y-56468000D01*
X68156000Y-56465000D01*
X68156000Y-56463000D01*
X68155000Y-56460000D01*
X68155000Y-56458000D01*
X68155000Y-56455000D01*
X68155000Y-55815000D01*
X68155000Y-55812000D01*
X68155000Y-55810000D01*
X68156000Y-55807000D01*
X68156000Y-55805000D01*
X68157000Y-55802000D01*
X68157000Y-55800000D01*
X68158000Y-55797000D01*
X68159000Y-55795000D01*
X68160000Y-55792000D01*
X68162000Y-55790000D01*
X68163000Y-55788000D01*
X68165000Y-55786000D01*
X68166000Y-55784000D01*
X68168000Y-55782000D01*
X68170000Y-55780000D01*
X68172000Y-55778000D01*
X68174000Y-55776000D01*
X68176000Y-55775000D01*
X68178000Y-55773000D01*
X68180000Y-55772000D01*
X68182000Y-55770000D01*
X68185000Y-55769000D01*
X68187000Y-55768000D01*
X68190000Y-55767000D01*
X68192000Y-55767000D01*
X68195000Y-55766000D01*
X68197000Y-55766000D01*
X68200000Y-55765000D01*
X68202000Y-55765000D01*
X68205000Y-55765000D01*
X69795000Y-55765000D01*
X69798000Y-55765000D01*
X69800000Y-55765000D01*
X69803000Y-55766000D01*
G37*
X69803000Y-57036000D02*
X69805000Y-57036000D01*
X69808000Y-57037000D01*
X69810000Y-57037000D01*
X69813000Y-57038000D01*
X69815000Y-57039000D01*
X69818000Y-57040000D01*
X69820000Y-57042000D01*
X69822000Y-57043000D01*
X69824000Y-57045000D01*
X69826000Y-57046000D01*
X69828000Y-57048000D01*
X69830000Y-57050000D01*
X69832000Y-57052000D01*
X69834000Y-57054000D01*
X69835000Y-57056000D01*
X69837000Y-57058000D01*
X69838000Y-57060000D01*
X69840000Y-57062000D01*
X69841000Y-57065000D01*
X69842000Y-57067000D01*
X69843000Y-57070000D01*
X69843000Y-57072000D01*
X69844000Y-57075000D01*
X69844000Y-57077000D01*
X69845000Y-57080000D01*
X69845000Y-57082000D01*
X69845000Y-57085000D01*
X69845000Y-57725000D01*
X69845000Y-57728000D01*
X69845000Y-57730000D01*
X69844000Y-57733000D01*
X69844000Y-57735000D01*
X69843000Y-57738000D01*
X69843000Y-57740000D01*
X69842000Y-57743000D01*
X69841000Y-57745000D01*
X69840000Y-57748000D01*
X69838000Y-57750000D01*
X69837000Y-57752000D01*
X69835000Y-57754000D01*
X69834000Y-57756000D01*
X69832000Y-57758000D01*
X69830000Y-57760000D01*
X69828000Y-57762000D01*
X69826000Y-57764000D01*
X69824000Y-57765000D01*
X69822000Y-57767000D01*
X69820000Y-57768000D01*
X69818000Y-57770000D01*
X69815000Y-57771000D01*
X69813000Y-57772000D01*
X69810000Y-57773000D01*
X69808000Y-57773000D01*
X69805000Y-57774000D01*
X69803000Y-57774000D01*
X69800000Y-57775000D01*
X69798000Y-57775000D01*
X69795000Y-57775000D01*
X68205000Y-57775000D01*
X68202000Y-57775000D01*
X68200000Y-57775000D01*
X68197000Y-57774000D01*
X68195000Y-57774000D01*
X68192000Y-57773000D01*
X68190000Y-57773000D01*
X68187000Y-57772000D01*
X68185000Y-57771000D01*
X68182000Y-57770000D01*
X68180000Y-57768000D01*
X68178000Y-57767000D01*
X68176000Y-57765000D01*
X68174000Y-57764000D01*
X68172000Y-57762000D01*
X68170000Y-57760000D01*
X68168000Y-57758000D01*
X68166000Y-57756000D01*
X68165000Y-57754000D01*
X68163000Y-57752000D01*
X68162000Y-57750000D01*
X68160000Y-57748000D01*
X68159000Y-57745000D01*
X68158000Y-57743000D01*
X68157000Y-57740000D01*
X68157000Y-57738000D01*
X68156000Y-57735000D01*
X68156000Y-57733000D01*
X68155000Y-57730000D01*
X68155000Y-57728000D01*
X68155000Y-57725000D01*
X68155000Y-57085000D01*
X68155000Y-57082000D01*
X68155000Y-57080000D01*
X68156000Y-57077000D01*
X68156000Y-57075000D01*
X68157000Y-57072000D01*
X68157000Y-57070000D01*
X68158000Y-57067000D01*
X68159000Y-57065000D01*
X68160000Y-57062000D01*
X68162000Y-57060000D01*
X68163000Y-57058000D01*
X68165000Y-57056000D01*
X68166000Y-57054000D01*
X68168000Y-57052000D01*
X68170000Y-57050000D01*
X68172000Y-57048000D01*
X68174000Y-57046000D01*
X68176000Y-57045000D01*
X68178000Y-57043000D01*
X68180000Y-57042000D01*
X68182000Y-57040000D01*
X68185000Y-57039000D01*
X68187000Y-57038000D01*
X68190000Y-57037000D01*
X68192000Y-57037000D01*
X68195000Y-57036000D01*
X68197000Y-57036000D01*
X68200000Y-57035000D01*
X68202000Y-57035000D01*
X68205000Y-57035000D01*
X69795000Y-57035000D01*
X69798000Y-57035000D01*
X69800000Y-57035000D01*
X69803000Y-57036000D01*
G36*
X69803000Y-57036000D02*
G01*
X69805000Y-57036000D01*
X69808000Y-57037000D01*
X69810000Y-57037000D01*
X69813000Y-57038000D01*
X69815000Y-57039000D01*
X69818000Y-57040000D01*
X69820000Y-57042000D01*
X69822000Y-57043000D01*
X69824000Y-57045000D01*
X69826000Y-57046000D01*
X69828000Y-57048000D01*
X69830000Y-57050000D01*
X69832000Y-57052000D01*
X69834000Y-57054000D01*
X69835000Y-57056000D01*
X69837000Y-57058000D01*
X69838000Y-57060000D01*
X69840000Y-57062000D01*
X69841000Y-57065000D01*
X69842000Y-57067000D01*
X69843000Y-57070000D01*
X69843000Y-57072000D01*
X69844000Y-57075000D01*
X69844000Y-57077000D01*
X69845000Y-57080000D01*
X69845000Y-57082000D01*
X69845000Y-57085000D01*
X69845000Y-57725000D01*
X69845000Y-57728000D01*
X69845000Y-57730000D01*
X69844000Y-57733000D01*
X69844000Y-57735000D01*
X69843000Y-57738000D01*
X69843000Y-57740000D01*
X69842000Y-57743000D01*
X69841000Y-57745000D01*
X69840000Y-57748000D01*
X69838000Y-57750000D01*
X69837000Y-57752000D01*
X69835000Y-57754000D01*
X69834000Y-57756000D01*
X69832000Y-57758000D01*
X69830000Y-57760000D01*
X69828000Y-57762000D01*
X69826000Y-57764000D01*
X69824000Y-57765000D01*
X69822000Y-57767000D01*
X69820000Y-57768000D01*
X69818000Y-57770000D01*
X69815000Y-57771000D01*
X69813000Y-57772000D01*
X69810000Y-57773000D01*
X69808000Y-57773000D01*
X69805000Y-57774000D01*
X69803000Y-57774000D01*
X69800000Y-57775000D01*
X69798000Y-57775000D01*
X69795000Y-57775000D01*
X68205000Y-57775000D01*
X68202000Y-57775000D01*
X68200000Y-57775000D01*
X68197000Y-57774000D01*
X68195000Y-57774000D01*
X68192000Y-57773000D01*
X68190000Y-57773000D01*
X68187000Y-57772000D01*
X68185000Y-57771000D01*
X68182000Y-57770000D01*
X68180000Y-57768000D01*
X68178000Y-57767000D01*
X68176000Y-57765000D01*
X68174000Y-57764000D01*
X68172000Y-57762000D01*
X68170000Y-57760000D01*
X68168000Y-57758000D01*
X68166000Y-57756000D01*
X68165000Y-57754000D01*
X68163000Y-57752000D01*
X68162000Y-57750000D01*
X68160000Y-57748000D01*
X68159000Y-57745000D01*
X68158000Y-57743000D01*
X68157000Y-57740000D01*
X68157000Y-57738000D01*
X68156000Y-57735000D01*
X68156000Y-57733000D01*
X68155000Y-57730000D01*
X68155000Y-57728000D01*
X68155000Y-57725000D01*
X68155000Y-57085000D01*
X68155000Y-57082000D01*
X68155000Y-57080000D01*
X68156000Y-57077000D01*
X68156000Y-57075000D01*
X68157000Y-57072000D01*
X68157000Y-57070000D01*
X68158000Y-57067000D01*
X68159000Y-57065000D01*
X68160000Y-57062000D01*
X68162000Y-57060000D01*
X68163000Y-57058000D01*
X68165000Y-57056000D01*
X68166000Y-57054000D01*
X68168000Y-57052000D01*
X68170000Y-57050000D01*
X68172000Y-57048000D01*
X68174000Y-57046000D01*
X68176000Y-57045000D01*
X68178000Y-57043000D01*
X68180000Y-57042000D01*
X68182000Y-57040000D01*
X68185000Y-57039000D01*
X68187000Y-57038000D01*
X68190000Y-57037000D01*
X68192000Y-57037000D01*
X68195000Y-57036000D01*
X68197000Y-57036000D01*
X68200000Y-57035000D01*
X68202000Y-57035000D01*
X68205000Y-57035000D01*
X69795000Y-57035000D01*
X69798000Y-57035000D01*
X69800000Y-57035000D01*
X69803000Y-57036000D01*
G37*
%TD*%
D11*
%TO.C,J5*%
X48705000Y-16295000D03*
D12*
X46165000Y-16295000D03*
X43625000Y-16295000D03*
X41085000Y-16295000D03*
X38545000Y-16295000D03*
X36005000Y-16295000D03*
X33465000Y-16295000D03*
X30925000Y-16295000D03*
X28385000Y-16295000D03*
X25845000Y-16295000D03*
%TD*%
D11*
%TO.C,J1*%
X34540000Y-63000000D03*
D12*
X32000000Y-63000000D03*
X29460000Y-63000000D03*
%TD*%
D13*
%TO.C,J4*%
X19000000Y-27000000D03*
X19000000Y-28000000D03*
X19000000Y-29000000D03*
X19000000Y-30000000D03*
D14*
X15125000Y-25700000D03*
X15125000Y-31300000D03*
%TD*%
D15*
%TO.C,Q1*%
X53500000Y-32950000D03*
X53500000Y-31050000D03*
X51225000Y-32000000D03*
%TD*%
D16*
%TO.C,U1*%
X39092500Y-39740000D03*
X39092500Y-40390000D03*
X39092500Y-41040000D03*
X39092500Y-41690000D03*
X39092500Y-42340000D03*
D17*
X40242500Y-43490000D03*
X40892500Y-43490000D03*
X41542500Y-43490000D03*
X42192500Y-43490000D03*
X42842500Y-43490000D03*
D16*
X43992500Y-42340000D03*
X43992500Y-41690000D03*
X43992500Y-41040000D03*
X43992500Y-40390000D03*
X43992500Y-39740000D03*
D17*
X42842500Y-38590000D03*
X42192500Y-38590000D03*
X41542500Y-38590000D03*
X40892500Y-38590000D03*
X40242500Y-38590000D03*
D18*
X41542500Y-41040000D03*
%TD*%
D19*
%TO.C,R6*%
X31042500Y-37715000D03*
X31042500Y-39540000D03*
%TD*%
D20*
%TO.C,J8*%
X77750000Y-61500000D03*
D21*
X77750000Y-56420000D03*
%TD*%
D19*
%TO.C,R9*%
X31042500Y-55627500D03*
X31042500Y-57452500D03*
%TD*%
D22*
%TO.C,FB2*%
X26042500Y-44540000D03*
X26042500Y-42640000D03*
%TD*%
D23*
%TO.C,U5*%
X63420000Y-46500000D03*
D24*
X65960000Y-46500000D03*
X68500000Y-46500000D03*
%TD*%
D22*
%TO.C,FB4*%
X26042500Y-57540000D03*
X26042500Y-55640000D03*
%TD*%
D25*
%TO.C,C4*%
X68800000Y-61000000D03*
X68800000Y-62900000D03*
%TD*%
D26*
%TO.C,R4*%
X53500000Y-37000000D03*
X51675000Y-37000000D03*
%TD*%
D27*
%TO.C,D1*%
X81500000Y-18125000D03*
X81500000Y-20000000D03*
%TD*%
D15*
%TO.C,Q2*%
X48137500Y-27950000D03*
X48137500Y-26050000D03*
X45862500Y-27000000D03*
%TD*%
D20*
%TO.C,J2*%
X77750000Y-47500000D03*
D21*
X77750000Y-42420000D03*
%TD*%
D19*
%TO.C,R7*%
X31042500Y-42715000D03*
X31042500Y-44540000D03*
%TD*%
D28*
%TO.C,RV2*%
X32000000Y-29000000D03*
X29460000Y-26460000D03*
X32000000Y-23920000D03*
%TD*%
D20*
%TO.C,J12*%
X17962500Y-44540000D03*
D21*
X17962500Y-39460000D03*
%TD*%
D29*
%TO.C,C6*%
X55550000Y-41050000D03*
X57450000Y-41050000D03*
%TD*%
D25*
%TO.C,C2*%
X35000000Y-53550000D03*
X35000000Y-55450000D03*
%TD*%
D20*
%TO.C,J13*%
X18042500Y-57540000D03*
D21*
X18042500Y-52460000D03*
%TD*%
D30*
%TO.C,R1*%
X51675000Y-27000000D03*
X53500000Y-27000000D03*
%TD*%
D26*
%TO.C,R5*%
X48000000Y-32000000D03*
X46175000Y-32000000D03*
%TD*%
D22*
%TO.C,FB3*%
X26042500Y-52540000D03*
X26042500Y-50640000D03*
%TD*%
%TO.C,FB1*%
X26042500Y-39540000D03*
X26042500Y-37640000D03*
%TD*%
D31*
%TO.C,C5*%
X57500000Y-49000000D03*
X55600000Y-49000000D03*
%TD*%
D19*
%TO.C,R3*%
X59800000Y-61075000D03*
X59800000Y-62900000D03*
%TD*%
%TO.C,R8*%
X31042500Y-50715000D03*
X31042500Y-52540000D03*
%TD*%
D30*
%TO.C,R2*%
X46175000Y-22000000D03*
X48000000Y-22000000D03*
%TD*%
D13*
%TO.C,J3*%
X19000000Y-17000000D03*
X19000000Y-18000000D03*
X19000000Y-19000000D03*
X19000000Y-20000000D03*
D14*
X15125000Y-15700000D03*
X15125000Y-21300000D03*
%TD*%
D25*
%TO.C,C1*%
X35542500Y-40140000D03*
X35542500Y-42040000D03*
%TD*%
D32*
%TO.C,L1*%
X55375000Y-45000000D03*
X57500000Y-45000000D03*
%TD*%
D25*
%TO.C,C3*%
X64300000Y-61000000D03*
X64300000Y-62900000D03*
%TD*%
D28*
%TO.C,RV1*%
X40000000Y-29000000D03*
X37460000Y-26460000D03*
X40000000Y-23920000D03*
%TD*%
D33*
%TO.C,U3*%
X61335000Y-17932000D03*
X61335000Y-20472000D03*
X61335000Y-23012000D03*
X61335000Y-25552000D03*
X61335000Y-28092000D03*
X61335000Y-30632000D03*
X61335000Y-33172000D03*
X77500000Y-33172000D03*
X77500000Y-30632000D03*
X77500000Y-28092000D03*
X77500000Y-25552000D03*
X77500000Y-23012000D03*
X77500000Y-20472000D03*
X77500000Y-17932000D03*
D34*
X64945000Y-25170000D03*
X64945000Y-23265000D03*
D12*
X68120000Y-16920000D03*
X70660000Y-16920000D03*
X68120000Y-19460000D03*
X70660000Y-19460000D03*
X68120000Y-22000000D03*
X70660000Y-22000000D03*
%TD*%
D16*
%TO.C,U2*%
X39092500Y-52740000D03*
X39092500Y-53390000D03*
X39092500Y-54040000D03*
X39092500Y-54690000D03*
X39092500Y-55340000D03*
D17*
X40242500Y-56490000D03*
X40892500Y-56490000D03*
X41542500Y-56490000D03*
X42192500Y-56490000D03*
X42842500Y-56490000D03*
D16*
X43992500Y-55340000D03*
X43992500Y-54690000D03*
X43992500Y-54040000D03*
X43992500Y-53390000D03*
X43992500Y-52740000D03*
D17*
X42842500Y-51590000D03*
X42192500Y-51590000D03*
X41542500Y-51590000D03*
X40892500Y-51590000D03*
X40242500Y-51590000D03*
D18*
X41542500Y-54040000D03*
%TD*%
M02*
