M48
; DRILL file KiCad 10.0.0 date 2026-04-06T17:20:20
; FORMAT={-:-/ absolute / inch / decimal}
; #@! TF.CreationDate,2026-04-06T17:20:20-07:00
; #@! TF.GenerationSoftware,Kicad,Pcbnew,10.0.0
; #@! TF.FileFunction,MixedPlating,1,2
FMAT,2
INCH
; #@! TA.AperFunction,Plated,PTH,ViaDrill
T1C0.0118
; #@! TA.AperFunction,Plated,PTH,ComponentDrill
T2C0.0315
; #@! TA.AperFunction,Plated,PTH,ComponentDrill
T3C0.0394
; #@! TA.AperFunction,Plated,PTH,ComponentDrill
T4C0.0512
%
G90
G05
T1
X0.5955Y-0.6181
X0.5955Y-0.8386
X0.5955Y-1.0118
X0.5955Y-1.2323
X0.748Y-0.6693
X0.748Y-0.7087
X0.748Y-1.063
X0.748Y-1.1024
X1.378Y-1.2992
X1.5157Y-1.0976
X1.5453Y-1.5157
X1.5748Y-1.9488
X1.5933Y-2.2822
X1.6108Y-1.9803
X1.6142Y-1.4665
X1.7913Y-2.0311
X1.8056Y-1.063
X1.8179Y-0.8661
X1.8179Y-1.2598
X1.8898Y-0.8661
X1.8898Y-1.2598
X1.8952Y-1.0256
X1.8952Y-1.1004
X2.0167Y-1.2598
X2.0344Y-1.4567
X2.1063Y-1.063
X2.1063Y-1.2224
X2.1063Y-1.2972
X2.1063Y-1.4567
X2.126Y-2.4213
X2.1826Y-1.7741
X2.185Y-2.1063
X2.187Y-1.6161
X2.189Y-1.9291
X2.2638Y-1.7717
X2.2638Y-1.9291
X2.3543Y-2.4045
X2.4148Y-0.706
X2.4148Y-0.806
X2.4148Y-0.906
X2.5039Y-2.11
X2.5039Y-2.16
X2.5039Y-2.21
X2.5039Y-2.26
X2.6575Y-1.9882
X2.7087Y-2.4016
X2.7087Y-2.4764
X2.7165Y-2.26
X3.2087Y-0.7874
T2
X1.1598Y-1.0417
X1.2598Y-0.9417
X1.2598Y-1.1417
X1.4748Y-1.0417
X1.5748Y-0.9417
X1.5748Y-1.1417
T3
X1.0175Y-0.6415
X1.1175Y-0.6415
X1.1598Y-2.4803
X1.2175Y-0.6415
X1.2598Y-2.4803
X1.3175Y-0.6415
X1.3598Y-2.4803
X1.4175Y-0.6415
X1.5175Y-0.6415
X1.6175Y-0.6415
X1.7175Y-0.6415
X1.8175Y-0.6415
X1.9175Y-0.6415
X2.4969Y-1.8307
X2.5969Y-1.8307
X2.6969Y-1.8307
T4
X0.7072Y-1.5535
X0.7072Y-1.7535
X0.7103Y-2.0654
X0.7103Y-2.2654
X3.061Y-1.6701
X3.061Y-1.8701
X3.061Y-2.2213
X3.061Y-2.4213
M30
