%TF.GenerationSoftware,KiCad,Pcbnew,10.0.0*%
%TF.CreationDate,2026-04-06T17:18:04-07:00*%
%TF.ProjectId,First_Crack_Controller,46697273-745f-4437-9261-636b5f436f6e,rev?*%
%TF.SameCoordinates,Original*%
%TF.FileFunction,Copper,L2,Bot*%
%TF.FilePolarity,Positive*%
%FSLAX46Y46*%
G04 Gerber Fmt 4.6, Leading zero omitted, Abs format (unit mm)*
G04 Created by KiCad (PCBNEW 10.0.0) date 2026-04-06 17:18:04*
%MOMM*%
%LPD*%
G01*
G04 APERTURE LIST*
%TA.AperFunction,ComponentPad*%
%ADD10R,1.700000X1.700000*%
%TD*%
%TA.AperFunction,ComponentPad*%
%ADD11C,1.700000*%
%TD*%
%TA.AperFunction,ComponentPad*%
%ADD12R,1.950000X1.950000*%
%TD*%
%TA.AperFunction,ComponentPad*%
%ADD13C,1.950000*%
%TD*%
%TA.AperFunction,ComponentPad*%
%ADD14R,1.500000X2.300000*%
%TD*%
%TA.AperFunction,ComponentPad*%
%ADD15O,1.500000X2.300000*%
%TD*%
%TA.AperFunction,ComponentPad*%
%ADD16C,1.440000*%
%TD*%
%TA.AperFunction,ViaPad*%
%ADD17C,0.800000*%
%TD*%
%TA.AperFunction,Conductor*%
%ADD18C,0.400000*%
%TD*%
%TA.AperFunction,Conductor*%
%ADD19C,0.800000*%
%TD*%
%TA.AperFunction,Conductor*%
%ADD20C,0.200000*%
%TD*%
%TA.AperFunction,Conductor*%
%ADD21C,0.500000*%
%TD*%
G04 APERTURE END LIST*
D10*
%TO.P,J5,1,Pin_1_1*%
%TO.N,GND*%
X48705000Y-16295000D03*
D11*
%TO.P,J5,2,Pin_2_2*%
%TO.N,+5V*%
X46165000Y-16295000D03*
%TO.P,J5,3,Pin_3_3*%
%TO.N,/Display_Vo*%
X43625000Y-16295000D03*
%TO.P,J5,4,Pin_4_4*%
%TO.N,GND*%
X41085000Y-16295000D03*
%TO.P,J5,5,Pin_5_5*%
X38545000Y-16295000D03*
%TO.P,J5,6,Pin_6_6*%
X36005000Y-16295000D03*
%TO.P,J5,7,Pin_7_7*%
%TO.N,/SDA5V*%
X33465000Y-16295000D03*
%TO.P,J5,8,Pin_8_8*%
%TO.N,/SCL5V*%
X30925000Y-16295000D03*
%TO.P,J5,9,Pin_9_9*%
%TO.N,/Display_Brightness*%
X28385000Y-16295000D03*
%TO.P,J5,10,Pin_10_10*%
%TO.N,GND*%
X25845000Y-16295000D03*
%TD*%
D10*
%TO.P,J1,1,Pin_1_1*%
%TO.N,/Temp_Dial_Servo*%
X34540000Y-63000000D03*
D11*
%TO.P,J1,2,Pin_2_2*%
%TO.N,+5V*%
X32000000Y-63000000D03*
%TO.P,J1,3,Pin_3_3*%
%TO.N,GND*%
X29460000Y-63000000D03*
%TD*%
D12*
%TO.P,J8,1,1_1*%
%TO.N,Net-(U4-OUT1)*%
X77750000Y-61500000D03*
D13*
%TO.P,J8,2,2_2*%
%TO.N,Net-(U4-OUT2)*%
X77750000Y-56420000D03*
%TD*%
D14*
%TO.P,U5,1,IN_1*%
%TO.N,Net-(U5-IN)*%
X63420000Y-46500000D03*
D15*
%TO.P,U5,2,GND_2*%
%TO.N,GND*%
X65960000Y-46500000D03*
%TO.P,U5,3,OUT_3*%
%TO.N,+5V*%
X68500000Y-46500000D03*
%TD*%
D12*
%TO.P,J2,1,1_1*%
%TO.N,+24V*%
X77750000Y-47500000D03*
D13*
%TO.P,J2,2,2_2*%
%TO.N,GND*%
X77750000Y-42420000D03*
%TD*%
D16*
%TO.P,RV2,1,1_1*%
%TO.N,+5V*%
X32000000Y-29000000D03*
%TO.P,RV2,2,2_2*%
%TO.N,/Display_Brightness*%
X29460000Y-26460000D03*
%TO.P,RV2,3,3_3*%
%TO.N,GND*%
X32000000Y-23920000D03*
%TD*%
D12*
%TO.P,J12,1,1_1*%
%TO.N,Net-(FB2-Pad1)*%
X17962500Y-44540000D03*
D13*
%TO.P,J12,2,2_2*%
%TO.N,Net-(FB1-Pad1)*%
X17962500Y-39460000D03*
%TD*%
D12*
%TO.P,J13,1,1_1*%
%TO.N,Net-(FB4-Pad1)*%
X18042500Y-57540000D03*
D13*
%TO.P,J13,2,2_2*%
%TO.N,Net-(FB3-Pad1)*%
X18042500Y-52460000D03*
%TD*%
D16*
%TO.P,RV1,1,1_1*%
%TO.N,+5V*%
X40000000Y-29000000D03*
%TO.P,RV1,2,2_2*%
%TO.N,/Display_Vo*%
X37460000Y-26460000D03*
%TO.P,RV1,3,3_3*%
%TO.N,GND*%
X40000000Y-23920000D03*
%TD*%
D17*
%TO.N,/SCL5V*%
X41000000Y-37250000D03*
%TO.N,/SDA5V*%
X38500000Y-27880000D03*
X40000000Y-49500000D03*
X39250000Y-38500000D03*
%TO.N,/SCL5V*%
X40913862Y-50300036D03*
%TO.N,GND*%
X15125000Y-31300000D03*
X68800000Y-62900000D03*
X35000000Y-33000000D03*
X15125000Y-15700000D03*
X15125000Y-25700000D03*
X15125000Y-21300000D03*
X55600000Y-49000000D03*
X55500000Y-53500000D03*
X63600000Y-53595000D03*
%TO.N,+5V*%
X46175000Y-22000000D03*
X45500000Y-51590000D03*
X40468750Y-57968750D03*
X67500000Y-50500000D03*
X81500000Y-20000000D03*
%TO.N,/SDA5V*%
X19000000Y-18000000D03*
X19000000Y-28000000D03*
X51675000Y-37000000D03*
%TO.N,/SCL5V*%
X46175000Y-32000000D03*
X45862500Y-27000000D03*
X19000000Y-27000000D03*
X19000000Y-17000000D03*
%TO.N,/Temp_Dial_Servo*%
X54000000Y-61500000D03*
X61335000Y-23012000D03*
%TO.N,+3V3*%
X53500000Y-32950000D03*
X53500000Y-37000000D03*
X48137500Y-27950000D03*
X48000000Y-32000000D03*
%TO.N,/SDA3V3*%
X53500000Y-31050000D03*
X53500000Y-27000000D03*
%TO.N,Net-(U5-IN)*%
X57500000Y-49000000D03*
X57500000Y-45000000D03*
%TO.N,+24V*%
X68800000Y-61000000D03*
X69000000Y-57405000D03*
X55550000Y-41050000D03*
X55437500Y-45062500D03*
%TO.N,/SCL3V3*%
X48137500Y-26050000D03*
X48000000Y-22000000D03*
%TO.N,/Drum_PWM_Reverse*%
X63600000Y-54865000D03*
X61335000Y-17932000D03*
%TO.N,/Drum_PWM_Forward*%
X61335000Y-20472000D03*
X63600000Y-56135000D03*
%TO.N,Net-(U4-ILIM)*%
X63600000Y-57405000D03*
X59800000Y-61075000D03*
%TO.N,/SDA5V*%
X51225000Y-32000000D03*
%TD*%
%TO.N,/SCL5V*%
D18*
X46175000Y-37250000D02*
X41000000Y-37250000D01*
X46175000Y-37250000D02*
X46175000Y-32000000D01*
X46175000Y-45038898D02*
X46175000Y-37250000D01*
X40913862Y-50300036D02*
X46175000Y-45038898D01*
%TO.N,/SDA5V*%
X51675000Y-32450000D02*
X51675000Y-37000000D01*
X51225000Y-32000000D02*
X51675000Y-32450000D01*
X39250000Y-38500000D02*
X38500000Y-37750000D01*
X38500000Y-37750000D02*
X38500000Y-27880000D01*
X39250000Y-48750000D02*
X39250000Y-38500000D01*
X40000000Y-49500000D02*
X39250000Y-48750000D01*
%TO.N,/Display_Brightness*%
X28385000Y-16295000D02*
X29460000Y-17370000D01*
X29460000Y-17370000D02*
X29460000Y-26460000D01*
%TO.N,GND*%
X15125000Y-15700000D02*
X15125000Y-21300000D01*
X55500000Y-49100000D02*
X55600000Y-49000000D01*
D19*
X81000000Y-50700000D02*
X81000000Y-45670000D01*
D18*
X35000000Y-33000000D02*
X35000000Y-26920000D01*
D19*
X81000000Y-45670000D02*
X77750000Y-42420000D01*
D18*
X35000000Y-26920000D02*
X32000000Y-23920000D01*
D19*
X68800000Y-62900000D02*
X81000000Y-50700000D01*
D18*
X63600000Y-53595000D02*
X65960000Y-51235000D01*
X55500000Y-53500000D02*
X55500000Y-49100000D01*
X15125000Y-21300000D02*
X15125000Y-25700000D01*
X65960000Y-51235000D02*
X65960000Y-46500000D01*
X15125000Y-25700000D02*
X15125000Y-31300000D01*
%TO.N,+5V*%
X46175000Y-22825000D02*
X46175000Y-22000000D01*
X81500000Y-20000000D02*
X81500000Y-36500000D01*
X71500000Y-46500000D02*
X67500000Y-50500000D01*
X46165000Y-16295000D02*
X46165000Y-21990000D01*
X40000000Y-29000000D02*
X46175000Y-22825000D01*
X45500000Y-52937500D02*
X40468750Y-57968750D01*
X45500000Y-51590000D02*
X45500000Y-52937500D01*
X46165000Y-21990000D02*
X46175000Y-22000000D01*
X32000000Y-29000000D02*
X32000000Y-63000000D01*
X71500000Y-46500000D02*
X68500000Y-46500000D01*
X81500000Y-36500000D02*
X71500000Y-46500000D01*
%TO.N,/Display_Vo*%
X43625000Y-16295000D02*
X37460000Y-22460000D01*
X37460000Y-22460000D02*
X37460000Y-26460000D01*
%TO.N,/SDA5V*%
X19500000Y-28000000D02*
X19000000Y-28000000D01*
X21000000Y-18500000D02*
X21000000Y-26500000D01*
X19000000Y-18000000D02*
X20500000Y-18000000D01*
X21000000Y-26500000D02*
X19500000Y-28000000D01*
X20500000Y-18000000D02*
X21000000Y-18500000D01*
%TO.N,/SCL5V*%
X18273000Y-17698866D02*
X18273000Y-26273000D01*
X18971866Y-17000000D02*
X18273000Y-17698866D01*
X45862500Y-27000000D02*
X46175000Y-27312500D01*
X46175000Y-27312500D02*
X46175000Y-32000000D01*
X18273000Y-26273000D02*
X19000000Y-27000000D01*
X19000000Y-17000000D02*
X18971866Y-17000000D01*
%TO.N,/Display_Brightness*%
D20*
X29500000Y-26420000D02*
X29460000Y-26460000D01*
%TO.N,/Temp_Dial_Servo*%
D18*
X54000000Y-61500000D02*
X54000000Y-39000000D01*
X61335000Y-31665000D02*
X61335000Y-23012000D01*
X54000000Y-39000000D02*
X61335000Y-31665000D01*
%TO.N,+3V3*%
X48000000Y-32000000D02*
X48000000Y-28087500D01*
X48000000Y-28087500D02*
X48137500Y-27950000D01*
X53500000Y-37000000D02*
X53500000Y-32950000D01*
X48137500Y-31862500D02*
X48000000Y-32000000D01*
%TO.N,/SDA3V3*%
X53500000Y-27000000D02*
X53500000Y-31050000D01*
%TO.N,Net-(U5-IN)*%
X57500000Y-45000000D02*
X57500000Y-49000000D01*
%TO.N,+24V*%
D19*
X77750000Y-48655000D02*
X77750000Y-47500000D01*
D20*
X55550000Y-44950000D02*
X55437500Y-45062500D01*
D19*
X69000000Y-57405000D02*
X77750000Y-48655000D01*
D18*
X55550000Y-41050000D02*
X55550000Y-44950000D01*
D20*
X68800000Y-57605000D02*
X69000000Y-57405000D01*
D19*
X68800000Y-61000000D02*
X68800000Y-57605000D01*
%TO.N,/SCL3V3*%
D18*
X48137500Y-22137500D02*
X48000000Y-22000000D01*
X48137500Y-26050000D02*
X48137500Y-22137500D01*
%TO.N,/Drum_PWM_Reverse*%
X63600000Y-54865000D02*
X62270000Y-53535000D01*
X62270000Y-53535000D02*
X62270000Y-39230000D01*
X62270000Y-39230000D02*
X64500000Y-37000000D01*
X64500000Y-37000000D02*
X64500000Y-21097000D01*
X64500000Y-21097000D02*
X61335000Y-17932000D01*
%TO.N,/Drum_PWM_Forward*%
X63500000Y-22500000D02*
X61472000Y-20472000D01*
X61335000Y-38665000D02*
X63500000Y-36500000D01*
X63500000Y-36500000D02*
X63500000Y-22500000D01*
X61472000Y-20472000D02*
X61335000Y-20472000D01*
X61335000Y-53870000D02*
X61335000Y-38665000D01*
X61335000Y-53870000D02*
X63600000Y-56135000D01*
%TO.N,Net-(U4-ILIM)*%
D20*
X59800000Y-61075000D02*
X59930000Y-61075000D01*
D21*
X59930000Y-61075000D02*
X63600000Y-57405000D01*
%TD*%
M02*
